<svg width="16" height="16" viewBox="0 0 16 16" fill="none" xmlns="http://www.w3.org/2000/svg">
<path d="M6.58882 1.47136C6.90593 1.43398 7.22545 1.51775 7.48343 1.70589C7.74142 1.89404 7.91883 2.17267 7.98016 2.48602L7.99682 2.59736L8.00016 2.66669V5.33336C8.00011 5.46807 7.95926 5.59961 7.88297 5.71064C7.80669 5.82167 7.69856 5.90699 7.57282 5.95536L7.50149 5.97869C7.15405 6.06902 6.83612 6.2483 6.57904 6.49887C6.32195 6.74944 6.13457 7.06266 6.03535 7.40767C5.93613 7.75268 5.92849 8.11759 6.01319 8.46645C6.09789 8.81531 6.272 9.13609 6.51838 9.3972C6.76476 9.65831 7.0749 9.85073 7.41826 9.95552C7.76162 10.0603 8.12636 10.0739 8.47654 9.99481C8.82673 9.91577 9.15029 9.74687 9.41535 9.50475C9.68041 9.26263 9.87783 8.95564 9.98816 8.61402L10.0215 8.49869C10.0554 8.3683 10.128 8.25124 10.2298 8.16293C10.3315 8.07463 10.4576 8.01922 10.5915 8.00402L10.6668 8.00002H13.2002C13.5538 8.00002 13.8929 8.1405 14.143 8.39055C14.393 8.6406 14.5335 8.97973 14.5335 9.33336C14.5335 9.38407 14.5276 9.43462 14.5162 9.48402C14.2494 10.6351 13.6814 11.6946 12.8705 12.5541C12.0595 13.4135 11.0347 14.0419 9.90105 14.375C8.76736 14.7082 7.5655 14.734 6.41855 14.4498C5.2716 14.1657 4.22077 13.5818 3.37369 12.758C2.52661 11.9342 1.9137 10.9 1.59774 9.76142C1.28178 8.62283 1.27411 7.42071 1.57553 6.27818C1.87695 5.13565 2.47661 4.09376 3.31312 3.25921C4.14963 2.42466 5.19292 1.82743 6.33616 1.52869L6.51616 1.48402L6.58882 1.47136Z" fill="#2563EB"/>
<path d="M9.85016 1.68408C9.89826 1.67289 9.94745 1.66708 9.99683 1.66675L10.0782 1.67141L10.1528 1.68475L10.2215 1.70475C11.1288 2.02415 11.9563 2.53613 12.6471 3.20553C13.3379 3.87493 13.8757 4.6859 14.2235 5.58275L14.2955 5.77875C14.3287 5.87293 14.3402 5.97336 14.3294 6.07263C14.3185 6.17189 14.2855 6.26744 14.2328 6.35223C14.1801 6.43703 14.109 6.50889 14.0247 6.56252C13.9405 6.61615 13.8453 6.65018 13.7462 6.66208L13.6668 6.66675H10.6668C10.5705 6.66675 10.4754 6.6459 10.3879 6.60562C10.3005 6.56534 10.2228 6.50659 10.1602 6.43341C9.97827 6.22036 9.77988 6.02197 9.56683 5.84008C9.44067 5.73208 9.35937 5.58088 9.33883 5.41608L9.3335 5.33341V2.33675L9.3375 2.25808C9.34105 2.23008 9.3455 2.2043 9.35083 2.18075L9.37083 2.11208C9.3964 2.03968 9.4343 1.97225 9.48283 1.91275L9.53016 1.85941C9.54972 1.84119 9.56905 1.82453 9.58816 1.80941L9.64816 1.76741L9.70683 1.73408L9.7755 1.70541L9.85016 1.68408Z" fill="#2563EB"/>
</svg>
