<svg width="1176" height="497" viewBox="0 0 1176 497" fill="none" xmlns="http://www.w3.org/2000/svg">
<mask id="mask0_2144_95480" style="mask-type:luminance" maskUnits="userSpaceOnUse" x="66" y="48" width="12" height="326">
<path d="M77.91 48.636H66.15V373.89H77.91V48.636Z" fill="white"/>
</mask>
<g mask="url(#mask0_2144_95480)">
<path d="M72.03 82.2085C75.6834 82.2085 78.645 85.2706 78.645 89.0479V374.65H65.415V89.0479C65.415 85.2706 68.3766 82.2085 72.03 82.2085Z" fill="url(#paint0_linear_2144_95480)" stroke="#FAFAFA"/>
</g>
<mask id="mask1_2144_95480" style="mask-type:luminance" maskUnits="userSpaceOnUse" x="102" y="103" width="13" height="271">
<path d="M114.317 103.352H102.557V373.89H114.317V103.352Z" fill="white"/>
</mask>
<g mask="url(#mask1_2144_95480)">
<path d="M108.437 131.148C112.09 131.148 115.052 134.21 115.052 137.988V374.65H101.822V137.988C101.822 134.21 104.784 131.148 108.437 131.148Z" fill="url(#paint1_linear_2144_95480)" stroke="#FAFAFA"/>
</g>
<mask id="mask2_2144_95480" style="mask-type:luminance" maskUnits="userSpaceOnUse" x="138" y="106" width="13" height="268">
<path d="M150.724 106.391H138.964V373.89H150.724V106.391Z" fill="white"/>
</mask>
<g mask="url(#mask2_2144_95480)">
<path d="M144.844 133.868C148.498 133.868 151.459 136.93 151.459 140.707V374.65H138.229V140.707C138.229 136.93 141.191 133.868 144.844 133.868Z" fill="url(#paint2_linear_2144_95480)" stroke="#FAFAFA"/>
</g>
<mask id="mask3_2144_95480" style="mask-type:luminance" maskUnits="userSpaceOnUse" x="175" y="247" width="13" height="127">
<path d="M187.131 247.74H175.371V373.89H187.131V247.74Z" fill="white"/>
</mask>
<g mask="url(#mask3_2144_95480)">
<path d="M181.251 260.296C184.904 260.296 187.866 263.358 187.866 267.135V374.65H174.636V267.135C174.636 263.358 177.598 260.296 181.251 260.296Z" fill="url(#paint3_linear_2144_95480)" stroke="#FAFAFA"/>
</g>
<mask id="mask4_2144_95480" style="mask-type:luminance" maskUnits="userSpaceOnUse" x="211" y="252" width="13" height="122">
<path d="M223.539 252.3H211.779V373.89H223.539V252.3Z" fill="white"/>
</mask>
<g mask="url(#mask4_2144_95480)">
<path d="M217.659 264.374C221.311 264.374 224.274 267.436 224.274 271.213V374.65H211.044V271.213C211.044 267.436 214.004 264.374 217.659 264.374Z" fill="url(#paint4_linear_2144_95480)" stroke="#FAFAFA"/>
</g>
<mask id="mask5_2144_95480" style="mask-type:luminance" maskUnits="userSpaceOnUse" x="248" y="253" width="12" height="121">
<path d="M259.945 253.82H248.185V373.89H259.945V253.82Z" fill="white"/>
</mask>
<g mask="url(#mask5_2144_95480)">
<path d="M254.065 265.734C257.719 265.734 260.68 268.796 260.68 272.573V374.65H247.45V272.573C247.45 268.796 250.412 265.734 254.065 265.734Z" fill="url(#paint5_linear_2144_95480)" stroke="#FAFAFA"/>
</g>
<mask id="mask6_2144_95480" style="mask-type:luminance" maskUnits="userSpaceOnUse" x="284" y="253" width="13" height="121">
<path d="M296.352 253.82H284.592V373.89H296.352V253.82Z" fill="white"/>
</mask>
<g mask="url(#mask6_2144_95480)">
<path d="M290.472 265.734C294.125 265.734 297.087 268.796 297.087 272.573V374.65H283.857V272.573C283.857 268.796 286.819 265.734 290.472 265.734Z" fill="url(#paint6_linear_2144_95480)" stroke="#FAFAFA"/>
</g>
<mask id="mask7_2144_95480" style="mask-type:luminance" maskUnits="userSpaceOnUse" x="320" y="261" width="13" height="113">
<path d="M332.76 261.419H321V373.89H332.76V261.419Z" fill="white"/>
</mask>
<g mask="url(#mask7_2144_95480)">
<path d="M326.879 272.531C330.532 272.531 333.494 275.593 333.494 279.37V374.65H320.264V279.37C320.264 275.593 323.225 272.531 326.879 272.531Z" fill="url(#paint7_linear_2144_95480)" stroke="#FAFAFA"/>
</g>
<mask id="mask8_2144_95480" style="mask-type:luminance" maskUnits="userSpaceOnUse" x="357" y="267" width="13" height="107">
<path d="M369.166 267.499H357.406V373.89H369.166V267.499Z" fill="white"/>
</mask>
<g mask="url(#mask8_2144_95480)">
<path d="M363.286 277.969C366.94 277.969 369.901 281.032 369.901 284.808V374.65H356.671V284.808C356.671 281.032 359.633 277.969 363.286 277.969Z" fill="url(#paint8_linear_2144_95480)" stroke="#FAFAFA"/>
</g>
<mask id="mask9_2144_95480" style="mask-type:luminance" maskUnits="userSpaceOnUse" x="393" y="269" width="13" height="105">
<path d="M405.573 269.018H393.813V373.89H405.573V269.018Z" fill="white"/>
</mask>
<g mask="url(#mask9_2144_95480)">
<path d="M399.693 279.328C403.346 279.328 406.308 282.39 406.308 286.167V374.65H393.078V286.167C393.078 282.39 396.04 279.328 399.693 279.328Z" fill="url(#paint9_linear_2144_95480)" stroke="#FAFAFA"/>
</g>
<mask id="mask10_2144_95480" style="mask-type:luminance" maskUnits="userSpaceOnUse" x="430" y="275" width="12" height="99">
<path d="M441.98 275.098H430.22V373.89H441.98V275.098Z" fill="white"/>
</mask>
<g mask="url(#mask10_2144_95480)">
<path d="M436.1 284.766C439.753 284.766 442.715 287.828 442.715 291.605V374.65H429.485V291.605C429.485 287.828 432.446 284.766 436.1 284.766Z" fill="url(#paint10_linear_2144_95480)" stroke="#FAFAFA"/>
</g>
<mask id="mask11_2144_95480" style="mask-type:luminance" maskUnits="userSpaceOnUse" x="466" y="281" width="13" height="93">
<path d="M478.387 281.177H466.627V373.89H478.387V281.177Z" fill="white"/>
</mask>
<g mask="url(#mask11_2144_95480)">
<path d="M472.507 290.204C476.161 290.204 479.122 293.266 479.122 297.043V374.65H465.892V297.043C465.892 293.266 468.854 290.204 472.507 290.204Z" fill="url(#paint11_linear_2144_95480)" stroke="#FAFAFA"/>
</g>
<mask id="mask12_2144_95480" style="mask-type:luminance" maskUnits="userSpaceOnUse" x="503" y="284" width="12" height="90">
<path d="M514.794 284.217H503.034V373.89H514.794V284.217Z" fill="white"/>
</mask>
<g mask="url(#mask12_2144_95480)">
<path d="M508.914 292.923C512.567 292.923 515.529 295.985 515.529 299.762V374.65H502.299V299.762C502.299 295.985 505.261 292.923 508.914 292.923Z" fill="url(#paint12_linear_2144_95480)" stroke="#FAFAFA"/>
</g>
<mask id="mask13_2144_95480" style="mask-type:luminance" maskUnits="userSpaceOnUse" x="539" y="287" width="13" height="87">
<path d="M551.202 287.257H539.442V373.89H551.202V287.257Z" fill="white"/>
</mask>
<g mask="url(#mask13_2144_95480)">
<path d="M545.321 295.642C548.974 295.642 551.936 298.703 551.936 302.482V374.65H538.706V302.482C538.706 298.703 541.667 295.642 545.321 295.642Z" fill="url(#paint13_linear_2144_95480)" stroke="#FAFAFA"/>
</g>
<mask id="mask14_2144_95480" style="mask-type:luminance" maskUnits="userSpaceOnUse" x="575" y="294" width="13" height="80">
<path d="M587.608 294.856H575.848V373.89H587.608V294.856Z" fill="white"/>
</mask>
<g mask="url(#mask14_2144_95480)">
<path d="M581.727 302.439C585.382 302.439 588.342 305.5 588.342 309.278V374.65H575.112V309.278C575.112 305.5 578.075 302.439 581.727 302.439Z" fill="url(#paint14_linear_2144_95480)" stroke="#FAFAFA"/>
</g>
<mask id="mask15_2144_95480" style="mask-type:luminance" maskUnits="userSpaceOnUse" x="612" y="296" width="13" height="78">
<path d="M624.015 296.376H612.255V373.89H624.015V296.376Z" fill="white"/>
</mask>
<g mask="url(#mask15_2144_95480)">
<path d="M618.135 303.798C621.788 303.798 624.75 306.86 624.75 310.637V374.65H611.52V310.637C611.52 306.86 614.482 303.798 618.135 303.798Z" fill="url(#paint15_linear_2144_95480)" stroke="#FAFAFA"/>
</g>
<mask id="mask16_2144_95480" style="mask-type:luminance" maskUnits="userSpaceOnUse" x="648" y="297" width="13" height="77">
<path d="M660.423 297.896H648.663V373.89H660.423V297.896Z" fill="white"/>
</mask>
<g mask="url(#mask16_2144_95480)">
<path d="M654.542 305.158C658.195 305.158 661.157 308.221 661.157 311.997V374.65H647.927V311.997C647.927 308.221 650.888 305.158 654.542 305.158Z" fill="url(#paint16_linear_2144_95480)" stroke="#FAFAFA"/>
</g>
<mask id="mask17_2144_95480" style="mask-type:luminance" maskUnits="userSpaceOnUse" x="685" y="300" width="12" height="74">
<path d="M696.828 300.936H685.068V373.89H696.828V300.936Z" fill="white"/>
</mask>
<g mask="url(#mask17_2144_95480)">
<path d="M690.948 307.877C694.603 307.877 697.563 310.938 697.563 314.717V374.65H684.333V314.717C684.333 310.938 687.296 307.877 690.948 307.877Z" fill="url(#paint17_linear_2144_95480)" stroke="#FAFAFA"/>
</g>
<mask id="mask18_2144_95480" style="mask-type:luminance" maskUnits="userSpaceOnUse" x="721" y="308" width="13" height="66">
<path d="M733.236 308.535H721.476V373.89H733.236V308.535Z" fill="white"/>
</mask>
<g mask="url(#mask18_2144_95480)">
<path d="M727.356 314.674C731.009 314.674 733.971 317.737 733.971 321.514V374.65H720.741V321.514C720.741 317.737 723.703 314.674 727.356 314.674Z" fill="url(#paint18_linear_2144_95480)" stroke="#FAFAFA"/>
</g>
<mask id="mask19_2144_95480" style="mask-type:luminance" maskUnits="userSpaceOnUse" x="757" y="314" width="13" height="60">
<path d="M769.643 314.615H757.883V373.89H769.643V314.615Z" fill="white"/>
</mask>
<g mask="url(#mask19_2144_95480)">
<path d="M763.763 320.112C767.416 320.112 770.378 323.173 770.378 326.952V374.65H757.148V326.952C757.148 323.173 760.109 320.112 763.763 320.112Z" fill="url(#paint19_linear_2144_95480)" stroke="#FAFAFA"/>
</g>
<mask id="mask20_2144_95480" style="mask-type:luminance" maskUnits="userSpaceOnUse" x="794" y="320" width="13" height="54">
<path d="M806.049 320.694H794.289V373.89H806.049V320.694Z" fill="white"/>
</mask>
<g mask="url(#mask20_2144_95480)">
<path d="M800.17 325.549C803.824 325.549 806.785 328.611 806.785 332.388V374.65H793.555V332.388L793.563 332.037C793.741 328.423 796.631 325.549 800.17 325.549Z" fill="url(#paint20_linear_2144_95480)" stroke="#FAFAFA"/>
</g>
<mask id="mask21_2144_95480" style="mask-type:luminance" maskUnits="userSpaceOnUse" x="830" y="323" width="13" height="51">
<path d="M842.457 323.734H830.697V373.89H842.457V323.734Z" fill="white"/>
</mask>
<g mask="url(#mask21_2144_95480)">
<path d="M836.577 328.268C840.23 328.268 843.192 331.33 843.192 335.107V374.65H829.962V335.107C829.962 331.33 832.924 328.268 836.577 328.268Z" fill="url(#paint21_linear_2144_95480)" stroke="#FAFAFA"/>
</g>
<mask id="mask22_2144_95480" style="mask-type:luminance" maskUnits="userSpaceOnUse" x="867" y="328" width="12" height="46">
<path d="M878.865 328.293H867.105V373.89H878.865V328.293Z" fill="white"/>
</mask>
<g mask="url(#mask22_2144_95480)">
<path d="M872.985 332.347C876.637 332.347 879.6 335.408 879.6 339.186V374.65H866.37V339.186C866.37 335.408 869.33 332.347 872.985 332.347Z" fill="url(#paint22_linear_2144_95480)" stroke="#FAFAFA"/>
</g>
<mask id="mask23_2144_95480" style="mask-type:luminance" maskUnits="userSpaceOnUse" x="903" y="334" width="13" height="40">
<path d="M915.271 334.373H903.511V373.89H915.271V334.373Z" fill="white"/>
</mask>
<g mask="url(#mask23_2144_95480)">
<path d="M909.391 337.784C913.045 337.784 916.006 340.846 916.006 344.623V374.65H902.776V344.623C902.776 340.846 905.738 337.784 909.391 337.784Z" fill="url(#paint23_linear_2144_95480)" stroke="#FAFAFA"/>
</g>
<mask id="mask24_2144_95480" style="mask-type:luminance" maskUnits="userSpaceOnUse" x="939" y="337" width="13" height="37">
<path d="M951.678 337.413H939.918V373.89H951.678V337.413Z" fill="white"/>
</mask>
<g mask="url(#mask24_2144_95480)">
<path d="M945.798 340.503C949.451 340.503 952.413 343.565 952.413 347.342V374.65H939.183V347.342L939.192 346.991C939.368 343.377 942.258 340.503 945.798 340.503Z" fill="url(#paint24_linear_2144_95480)" stroke="#FAFAFA"/>
</g>
<mask id="mask25_2144_95480" style="mask-type:luminance" maskUnits="userSpaceOnUse" x="976" y="340" width="13" height="34">
<path d="M988.085 340.453H976.325V373.89H988.085V340.453Z" fill="white"/>
</mask>
<g mask="url(#mask25_2144_95480)">
<path d="M982.205 343.222C985.858 343.222 988.82 346.284 988.82 350.061V374.65H975.59V350.061C975.59 346.284 978.551 343.222 982.205 343.222Z" fill="url(#paint25_linear_2144_95480)" stroke="#FAFAFA"/>
</g>
<mask id="mask26_2144_95480" style="mask-type:luminance" maskUnits="userSpaceOnUse" x="1012" y="348" width="13" height="26">
<path d="M1024.49 348.052H1012.73V373.89H1024.49V348.052Z" fill="white"/>
</mask>
<g mask="url(#mask26_2144_95480)">
<path d="M1018.61 350.019C1022.27 350.019 1025.23 353.081 1025.23 356.858V374.65H1012V356.858C1012 353.081 1014.96 350.019 1018.61 350.019Z" fill="url(#paint26_linear_2144_95480)" stroke="#FAFAFA"/>
</g>
<mask id="mask27_2144_95480" style="mask-type:luminance" maskUnits="userSpaceOnUse" x="1049" y="354" width="12" height="20">
<path d="M1060.9 354.132H1049.14V373.89H1060.9V354.132Z" fill="white"/>
</mask>
<g mask="url(#mask27_2144_95480)">
<path d="M1055.02 355.457C1058.67 355.457 1061.63 358.52 1061.63 362.296V374.65H1048.4V362.296C1048.4 358.52 1051.37 355.457 1055.02 355.457Z" fill="url(#paint27_linear_2144_95480)" stroke="#FAFAFA"/>
</g>
<mask id="mask28_2144_95480" style="mask-type:luminance" maskUnits="userSpaceOnUse" x="1085" y="355" width="13" height="19">
<path d="M1097.31 355.651H1085.55V373.89H1097.31V355.651Z" fill="white"/>
</mask>
<g mask="url(#mask28_2144_95480)">
<path d="M1091.43 356.817C1095.08 356.817 1098.04 359.878 1098.04 363.657V374.65H1084.81V363.657C1084.81 359.878 1087.77 356.817 1091.43 356.817Z" fill="url(#paint28_linear_2144_95480)" stroke="#FAFAFA"/>
</g>
<mask id="mask29_2144_95480" style="mask-type:luminance" maskUnits="userSpaceOnUse" x="1121" y="360" width="13" height="14">
<path d="M1133.71 360.211H1121.95V373.89H1133.71V360.211Z" fill="white"/>
</mask>
<g mask="url(#mask29_2144_95480)">
<path d="M1127.83 360.895C1131.49 360.895 1134.45 363.957 1134.45 367.734V374.65H1121.22V367.734C1121.22 363.957 1124.18 360.895 1127.83 360.895Z" fill="url(#paint29_linear_2144_95480)" stroke="#FAFAFA"/>
</g>
<mask id="mask30_2144_95480" style="mask-type:luminance" maskUnits="userSpaceOnUse" x="1158" y="363" width="13" height="11">
<path d="M1170.12 363.251H1158.36V373.89H1170.12V363.251Z" fill="white"/>
</mask>
<g mask="url(#mask30_2144_95480)">
<path d="M1164.24 363.614C1167.89 363.614 1170.85 366.675 1170.85 370.453V374.65H1157.62V370.453C1157.62 366.675 1160.59 363.614 1164.24 363.614Z" fill="url(#paint30_linear_2144_95480)" stroke="#FAFAFA"/>
</g>
<path d="M216.694 154.385C227.102 153.134 238.355 148.269 246.791 141.899C251.576 138.286 255.679 133.75 259.383 128.99C261.301 126.524 263.092 123.99 264.765 121.342C265.25 120.572 266.645 116.983 267.562 117.032C270.651 117.197 263.312 128.802 262.435 129.992C258.727 135.028 254.725 139.947 249.919 143.896C241.856 150.521 231.663 156.186 221.504 158.242C215.59 159.438 209.673 160.701 203.564 160.531C200.995 160.46 198.426 160.143 195.914 159.573C194.137 159.171 192.327 158.713 190.612 158.079C189.342 157.611 187.944 156.335 186.671 156.107C187.143 158.429 189.661 160.38 190.322 162.747C191.109 165.562 188.841 164.876 187.5 163.51C185.367 161.335 183.604 158.809 181.742 156.392C180.154 154.334 177.644 152.099 179.609 149.599C181.336 147.405 183.946 145.851 186.052 144.103C187.462 142.934 189.943 139.638 192.02 140.233C198.513 142.094 185.443 149.118 184.755 150.001C185.677 150.553 186.933 150.664 187.947 151.053C189.414 151.614 190.787 152.387 192.258 152.942C195.032 153.989 198.005 154.751 200.923 155.21C205.984 156.005 211.748 155.713 216.694 154.385C220.46 153.933 215.98 154.578 216.694 154.385Z" fill="url(#paint31_linear_2144_95480)"/>
<path d="M212.014 102.13C211.617 102.13 211.314 102.002 211.108 101.747C210.917 101.492 210.82 101.144 210.82 100.704C210.82 100.35 210.835 100.045 210.861 99.7893C210.889 99.534 210.944 99.2645 211.026 98.9808C211.108 98.6829 211.211 98.3211 211.335 97.8956C211.473 97.4559 211.643 96.8955 211.849 96.2146C211.973 95.8174 212.124 95.2996 212.302 94.6613C212.494 94.0088 212.687 93.2995 212.878 92.5334C213.071 91.7533 213.228 90.973 213.351 90.1928C213.49 89.3984 213.557 88.6679 213.557 88.0012C213.557 87.5472 213.462 87.1288 213.269 86.7458C211.993 88.0509 210.786 89.7531 209.647 91.8525C208.522 93.952 207.521 96.392 206.642 99.1723C206.382 99.8673 206.081 100.335 205.737 100.577C205.394 100.804 205.065 100.917 204.749 100.917C204.653 100.917 204.509 100.86 204.317 100.747C204.126 100.619 203.946 100.392 203.782 100.066C203.617 99.7396 203.535 99.2787 203.535 98.6829C203.535 98.5411 203.57 98.3637 203.638 98.1509C203.707 97.924 203.81 97.6828 203.946 97.4274C204.07 96.6899 204.159 95.9026 204.214 95.0656C204.283 94.2144 204.324 93.3704 204.337 92.5334C204.365 91.6823 204.379 90.8879 204.379 90.1503C204.379 89.5829 204.337 89.0864 204.255 88.6608C203.583 89.5404 202.945 90.6043 202.341 91.8525C201.738 93.1008 201.189 94.4272 200.695 95.8316C200.215 97.236 199.817 98.6119 199.501 99.9596C199.419 100.286 199.323 100.591 199.213 100.875C199.104 101.144 198.939 101.364 198.719 101.534C198.513 101.69 198.212 101.768 197.813 101.768C197.375 101.768 197.046 101.584 196.826 101.215C196.607 100.846 196.496 100.357 196.496 99.7468C196.496 99.2787 196.593 98.6757 196.784 97.9381C196.977 97.1863 197.237 96.3707 197.567 95.4911C197.896 94.5974 198.274 93.6896 198.698 92.7675C199.138 91.8313 199.598 90.9304 200.077 90.0652C200.558 89.1999 201.045 88.4267 201.538 87.7458C202.047 87.0508 202.526 86.5045 202.979 86.1074C203.447 85.696 203.871 85.4903 204.255 85.4903C204.27 85.4903 204.29 85.4903 204.317 85.4903C204.62 85.4903 204.893 85.5188 205.14 85.5754C205.402 85.618 205.628 85.767 205.819 86.0223C206.025 86.2635 206.204 86.6678 206.354 87.2352C206.506 87.8025 206.636 88.6041 206.745 89.6396C206.773 89.8949 206.794 90.2 206.807 90.5546C206.822 90.895 206.828 91.2496 206.828 91.6185C207.28 90.5687 207.774 89.5829 208.309 88.6608C208.859 87.7387 209.421 86.9231 209.997 86.2138C210.588 85.5045 211.17 84.9512 211.746 84.5541C212.322 84.1569 212.857 83.9583 213.351 83.9583C213.928 83.9583 214.463 84.1072 214.957 84.4051C215.451 84.6889 215.849 85.1712 216.15 85.8521C216.453 86.533 216.603 87.4621 216.603 88.6395C216.603 89.8878 216.494 91.1007 216.274 92.2781C216.055 93.4413 215.78 94.5408 215.451 95.5762C215.121 96.6117 214.792 97.5623 214.463 98.4275C214.133 99.2787 213.86 100.016 213.639 100.64C213.462 101.08 213.256 101.442 213.022 101.726C212.79 101.995 212.453 102.13 212.014 102.13ZM220.572 102.641C220.132 102.641 219.736 102.513 219.378 102.258C219.021 102.016 218.74 101.697 218.535 101.3C218.329 100.889 218.226 100.449 218.226 99.9808C218.226 99.1013 218.411 98.2432 218.782 97.4062C219.165 96.5692 219.666 95.7749 220.284 95.023C220.901 94.2711 221.573 93.5832 222.301 92.959C223.042 92.3207 223.775 91.7746 224.503 91.3206C225.244 90.8666 225.915 90.512 226.52 90.2567C227.137 90.0013 227.618 89.8737 227.96 89.8737C228.359 89.8737 228.681 89.9659 228.928 90.1503C229.188 90.3205 229.319 90.59 229.319 90.9589C229.319 91.0724 229.291 91.1645 229.236 91.2355C229.414 91.278 229.558 91.3844 229.668 91.5546C229.779 91.7249 229.833 91.9802 229.833 92.3207C229.833 92.4625 229.799 92.8313 229.73 93.4271C229.661 94.0229 229.586 94.7464 229.504 95.5975C229.435 96.4487 229.401 97.3352 229.401 98.2573C229.401 98.3991 229.421 98.5268 229.463 98.6403C229.504 98.7396 229.593 98.7893 229.73 98.7893C230.278 98.7893 230.834 98.6757 231.397 98.4488C231.973 98.2076 232.529 97.9169 233.064 97.5764C233.612 97.2218 234.106 96.8742 234.546 96.5338C234.999 96.1792 235.376 95.8883 235.678 95.6614C235.994 95.4202 236.2 95.2996 236.295 95.2996C236.761 95.2996 236.995 95.5408 236.995 96.0231C236.995 96.1508 236.843 96.4202 236.542 96.8317C236.254 97.2288 235.856 97.6899 235.348 98.2148C234.841 98.7254 234.271 99.2361 233.64 99.7468C233.023 100.243 232.378 100.655 231.706 100.981C231.047 101.307 230.409 101.47 229.792 101.47C229.038 101.47 228.462 101.286 228.063 100.917C227.679 100.548 227.405 100.052 227.24 99.4276C227.089 98.7893 227.006 98.0729 226.993 97.2785C226.293 98.314 225.566 99.2361 224.812 100.045C224.071 100.839 223.337 101.47 222.609 101.938C221.882 102.407 221.203 102.641 220.572 102.641ZM227.857 91.9802C226.512 92.647 225.305 93.413 224.235 94.2783C223.165 95.1294 222.314 96.0231 221.683 96.9593C221.066 97.8956 220.757 98.7964 220.757 99.6617C220.757 99.9029 220.867 100.023 221.087 100.023C221.347 100.023 221.691 99.8673 222.116 99.5553C222.555 99.2432 223.028 98.8318 223.536 98.3211C224.043 97.7963 224.551 97.2147 225.058 96.5763C225.566 95.9238 226.039 95.2571 226.478 94.5762C226.918 93.8953 227.268 93.2428 227.528 92.6186C227.624 92.3916 227.734 92.1789 227.857 91.9802ZM236.088 102.151C235.703 102.151 235.36 102.016 235.059 101.747C234.771 101.477 234.627 101.038 234.627 100.428C234.627 100.101 234.668 99.6404 234.75 99.0446C234.846 98.4488 234.969 97.8033 235.121 97.1083C235.271 96.399 235.435 95.6968 235.615 95.0017C235.806 94.3067 235.991 93.6896 236.17 93.1505C236.348 92.5973 236.505 92.1859 236.644 91.9164C236.821 91.5901 236.986 91.3916 237.137 91.3206C237.302 91.2355 237.459 91.1929 237.611 91.1929C237.884 91.1929 238.139 91.278 238.372 91.4483C238.619 91.6185 238.743 91.9943 238.743 92.576C238.743 92.8029 238.702 93.1718 238.619 93.6825C238.537 94.179 238.434 94.7605 238.311 95.4273C238.187 96.0941 238.049 96.782 237.899 97.4913C237.761 98.2006 237.624 98.8744 237.487 99.5127C237.364 100.137 237.261 100.662 237.179 101.087C237.11 101.442 236.965 101.704 236.746 101.875C236.541 102.059 236.32 102.151 236.088 102.151ZM238.455 89.0864C238.002 89.0864 237.583 88.9516 237.199 88.6821C236.814 88.3983 236.623 87.9658 236.623 87.3841C236.623 86.9018 236.739 86.5117 236.973 86.2138C237.205 85.9159 237.48 85.7031 237.796 85.5754C238.125 85.4336 238.413 85.3627 238.66 85.3627C238.907 85.3627 239.181 85.4194 239.484 85.5329C239.785 85.6321 240.045 85.8236 240.266 86.1074C240.498 86.3769 240.615 86.767 240.615 87.2777C240.615 87.6182 240.498 87.9302 240.266 88.214C240.032 88.4834 239.744 88.6962 239.401 88.8523C239.072 89.0084 238.756 89.0864 238.455 89.0864ZM243.566 101.832C243.236 101.832 242.907 101.719 242.578 101.492C242.262 101.25 242.002 100.91 241.796 100.47C241.59 100.016 241.487 99.4702 241.487 98.8318C241.487 97.9807 241.596 97.0729 241.816 96.1082C242.049 95.1435 242.331 94.179 242.66 93.2144C242.99 92.2497 243.311 91.3419 243.628 90.4907C243.777 90.0793 243.963 89.8027 244.183 89.6609C244.402 89.5048 244.69 89.4268 245.048 89.4268C245.856 89.4268 246.262 89.8452 246.262 90.6822C246.262 90.824 246.2 91.1007 246.077 91.5121C245.953 91.9092 245.788 92.3986 245.583 92.9803C245.39 93.562 245.184 94.1932 244.965 94.8741C244.759 95.5408 244.567 96.2217 244.389 96.9168C244.224 97.5977 244.093 98.2432 243.998 98.8531C244.313 98.3566 244.662 97.7395 245.048 97.0019C245.444 96.25 245.863 95.4627 246.303 94.64C246.756 93.8173 247.208 93.0513 247.661 92.3419C248.114 91.6185 248.559 91.0298 248.999 90.5758C249.437 90.1219 249.856 89.8949 250.254 89.8949C250.597 89.8949 250.919 89.9659 251.222 90.1077C251.536 90.2354 251.811 90.4907 252.045 90.8737C252.277 91.2426 252.456 91.7746 252.58 92.4696C252.717 93.1647 252.786 94.0796 252.786 95.2145C252.786 95.7819 252.833 96.3351 252.93 96.8742C253.038 97.399 253.218 97.8389 253.465 98.1935C253.712 98.5339 254.062 98.7042 254.514 98.7042C255.296 98.7042 255.996 98.5552 256.613 98.2573C257.231 97.9594 257.772 97.6118 258.239 97.2147C258.705 96.8175 259.096 96.4699 259.412 96.172C259.603 95.9734 259.768 95.8175 259.906 95.7039C260.056 95.5904 260.18 95.5337 260.277 95.5337C260.565 95.5337 260.771 95.6117 260.894 95.7678C261.031 95.9238 261.1 96.1366 261.1 96.4061C261.1 96.5479 260.982 96.8104 260.75 97.1934C260.516 97.5764 260.187 98.0161 259.762 98.5126C259.351 98.9949 258.877 99.463 258.342 99.917C257.807 100.371 257.231 100.747 256.613 101.045C255.996 101.343 255.364 101.492 254.72 101.492C253.635 101.492 252.737 101.293 252.024 100.896C251.324 100.484 250.803 99.8035 250.46 98.8531C250.116 97.8884 249.946 96.5763 249.946 94.9166C249.946 94.8741 249.946 94.8031 249.946 94.7038C249.946 94.2641 249.938 93.874 249.925 93.5335C249.925 93.1931 249.904 92.9165 249.863 92.7037C249.63 93.1434 249.349 93.6683 249.019 94.2783C248.703 94.8882 248.361 95.5408 247.99 96.2359C247.62 96.9168 247.235 97.5905 246.838 98.2573C246.44 98.9098 246.041 99.5056 245.644 100.045C245.259 100.584 244.889 101.016 244.533 101.343C244.176 101.669 243.854 101.832 243.566 101.832ZM269.178 108.662C268.792 108.662 268.491 108.521 268.272 108.237C268.066 107.967 267.963 107.549 267.963 106.981C267.963 106.201 268.031 105.272 268.169 104.194C268.306 103.116 268.491 101.974 268.725 100.768C268.957 99.5624 269.211 98.3778 269.486 97.2147C269.816 95.8813 270.137 94.6684 270.454 93.5761C270.783 92.4837 271.112 91.6113 271.441 90.9589C271.784 90.2921 272.126 89.9588 272.47 89.9588C272.785 89.9588 273.06 90.0793 273.294 90.3205C273.541 90.5474 273.664 90.8879 273.664 91.3419C273.664 91.6682 273.582 92.1363 273.417 92.7462C273.252 93.342 273.047 94.0868 272.8 94.9805C273.266 94.186 273.746 93.4059 274.24 92.6398C274.747 91.8738 275.262 91.1788 275.784 90.5546C276.304 89.9304 276.813 89.434 277.307 89.0651C277.801 88.6962 278.267 88.5119 278.706 88.5119C279.226 88.5119 279.687 88.6679 280.085 88.98C280.497 89.292 280.819 89.7176 281.052 90.2567C281.285 90.7958 281.402 91.4057 281.402 92.0866C281.402 93.3492 281.182 94.5762 280.744 95.7678C280.304 96.9452 279.694 98.002 278.912 98.9382C278.143 99.8745 277.245 100.619 276.216 101.172C275.187 101.712 274.076 101.981 272.882 101.981C272.538 101.981 272.223 101.946 271.935 101.875C271.66 101.818 271.406 101.747 271.174 101.662C271.009 102.57 270.85 103.499 270.7 104.449C270.562 105.414 270.418 106.428 270.268 107.492C270.104 108.272 269.739 108.662 269.178 108.662ZM278.912 91.0227C278.609 91.0227 278.225 91.2355 277.759 91.661C277.307 92.0866 276.813 92.647 276.278 93.342C275.743 94.0229 275.2 94.7677 274.652 95.5762C274.117 96.3707 273.602 97.1508 273.108 97.9169C272.628 98.6829 272.216 99.3496 271.874 99.917C272.916 99.8035 273.835 99.5199 274.631 99.0659C275.427 98.5978 276.106 98.0304 276.669 97.3636C277.23 96.6968 277.683 95.9947 278.027 95.2571C278.383 94.5052 278.644 93.7747 278.809 93.0654C278.974 92.3561 279.056 91.739 279.056 91.2142C279.056 91.0865 279.007 91.0227 278.912 91.0227ZM284.314 102.768C283.97 102.768 283.676 102.641 283.429 102.385C283.196 102.13 283.079 101.761 283.079 101.279C283.079 101.066 283.106 100.718 283.162 100.236C283.229 99.7397 283.312 99.1723 283.409 98.5339C283.517 97.8956 283.62 97.2288 283.717 96.5338C283.826 95.8387 283.916 95.1791 283.985 94.5549C284.067 93.9307 284.122 93.3987 284.15 92.959C284.176 92.4199 284.314 92.0369 284.561 91.81C284.808 91.5688 285.102 91.4483 285.446 91.4483C285.719 91.4483 285.966 91.5192 286.187 91.661C286.419 91.7887 286.563 92.0653 286.619 92.4909C286.687 92.9023 286.694 93.4981 286.64 94.2783C287.242 93.1434 287.854 92.1292 288.471 91.2355C289.102 90.3418 289.761 89.6325 290.447 89.1076C291.585 88.214 292.614 87.7671 293.534 87.7671C294.054 87.7671 294.398 87.8876 294.563 88.1288C294.728 88.37 294.81 88.6182 294.81 88.8736C294.81 89.0438 294.769 89.1999 294.686 89.3417C294.617 89.4835 294.466 89.6325 294.234 89.7885C294 89.9446 293.643 90.1503 293.164 90.4056C292.518 90.7461 291.88 91.1929 291.25 91.7462C290.632 92.2994 290.015 93.0087 289.397 93.874C288.78 94.7392 288.155 95.8032 287.525 97.0657C286.893 98.3283 286.241 99.8319 285.57 101.577C285.446 102.059 285.267 102.378 285.034 102.534C284.814 102.69 284.574 102.768 284.314 102.768ZM294.813 102.151C294.428 102.151 294.085 102.016 293.784 101.747C293.496 101.477 293.352 101.038 293.352 100.428C293.352 100.101 293.393 99.6404 293.475 99.0446C293.571 98.4488 293.694 97.8033 293.846 97.1083C293.996 96.399 294.16 95.6968 294.34 95.0017C294.531 94.3067 294.716 93.6896 294.895 93.1505C295.073 92.5973 295.23 92.1859 295.369 91.9164C295.546 91.5901 295.711 91.3916 295.862 91.3206C296.027 91.2355 296.184 91.1929 296.336 91.1929C296.609 91.1929 296.864 91.278 297.097 91.4483C297.344 91.6185 297.468 91.9943 297.468 92.576C297.468 92.8029 297.427 93.1718 297.344 93.6825C297.262 94.179 297.159 94.7605 297.036 95.4273C296.912 96.0941 296.774 96.782 296.624 97.4913C296.486 98.2006 296.349 98.8744 296.212 99.5127C296.089 100.137 295.986 100.662 295.904 101.087C295.835 101.442 295.691 101.704 295.471 101.875C295.266 102.059 295.045 102.151 294.813 102.151ZM297.18 89.0864C296.727 89.0864 296.308 88.9516 295.924 88.6821C295.539 88.3983 295.348 87.9658 295.348 87.3841C295.348 86.9018 295.464 86.5117 295.698 86.2138C295.93 85.9159 296.205 85.7031 296.521 85.5754C296.85 85.4336 297.138 85.3627 297.385 85.3627C297.632 85.3627 297.906 85.4194 298.209 85.5329C298.51 85.6321 298.77 85.8236 298.991 86.1074C299.223 86.3769 299.341 86.767 299.341 87.2777C299.341 87.6182 299.223 87.9302 298.991 88.214C298.757 88.4834 298.469 88.6962 298.126 88.8523C297.797 89.0084 297.481 89.0864 297.18 89.0864ZM303.643 102.534C302.67 102.534 301.888 102.18 301.297 101.47C300.708 100.747 300.412 99.7822 300.412 98.5765C300.412 98.1935 300.461 97.8033 300.556 97.4062C300.666 97.009 300.797 96.6402 300.947 96.2997C300.865 96.172 300.797 96.009 300.741 95.8103C300.7 95.5975 300.68 95.3493 300.68 95.0656C300.68 94.1435 300.838 93.2995 301.153 92.5334C301.469 91.7533 301.894 91.0794 302.429 90.512C302.964 89.9446 303.555 89.5048 304.199 89.1928C304.844 88.8807 305.495 88.7246 306.154 88.7246C307.28 88.7246 308.199 89.1148 308.912 89.8949C309.639 90.6751 310.002 91.888 310.002 93.5335C310.002 94.3562 309.879 95.1932 309.632 96.0444C309.385 96.8955 309.05 97.7112 308.624 98.4914C308.212 99.2574 307.733 99.9454 307.183 100.555C306.648 101.165 306.072 101.648 305.454 102.002C304.852 102.357 304.247 102.534 303.643 102.534ZM303.314 95.3422C303.383 95.4983 303.417 95.6826 303.417 95.8954C303.417 96.1082 303.376 96.3281 303.293 96.555C303.211 96.782 303.129 97.087 303.046 97.47C302.964 97.8389 302.923 98.3708 302.923 99.0659C302.923 99.2502 302.943 99.4063 302.985 99.534C303.041 99.6475 303.157 99.7042 303.335 99.7042C303.802 99.7042 304.24 99.5481 304.652 99.2361C305.078 98.9241 305.454 98.5127 305.784 98.002C306.128 97.4913 306.416 96.9239 306.648 96.2997C306.895 95.6614 307.08 95.0159 307.204 94.3634C307.342 93.6966 307.409 93.0795 307.409 92.5122C307.409 92.1433 307.342 91.888 307.204 91.7462C307.067 91.6043 306.827 91.5334 306.483 91.5334C306.017 91.5334 305.537 91.6895 305.043 92.0015C304.563 92.2994 304.158 92.7108 303.828 93.2356C303.499 93.7463 303.335 94.328 303.335 94.9805C303.335 95.1081 303.329 95.2286 303.314 95.3422ZM313.194 102.768C312.851 102.768 312.556 102.641 312.309 102.385C312.077 102.13 311.959 101.761 311.959 101.279C311.959 101.066 311.987 100.718 312.041 100.236C312.11 99.7397 312.193 99.1723 312.288 98.5339C312.399 97.8956 312.501 97.2288 312.597 96.5338C312.707 95.8387 312.797 95.1791 312.865 94.5549C312.947 93.9307 313.003 93.3987 313.029 92.959C313.057 92.4199 313.194 92.0369 313.441 91.81C313.688 91.5688 313.983 91.4483 314.326 91.4483C314.601 91.4483 314.848 91.5192 315.067 91.661C315.3 91.7887 315.444 92.0653 315.499 92.4909C315.568 92.9023 315.575 93.4981 315.519 94.2783C316.124 93.1434 316.734 92.1292 317.351 91.2355C317.983 90.3418 318.642 89.6325 319.327 89.1076C320.466 88.214 321.495 87.7671 322.414 87.7671C322.935 87.7671 323.278 87.8876 323.443 88.1288C323.607 88.37 323.69 88.6182 323.69 88.8736C323.69 89.0438 323.648 89.1999 323.566 89.3417C323.499 89.4835 323.347 89.6325 323.113 89.7885C322.881 89.9446 322.524 90.1503 322.043 90.4056C321.399 90.7461 320.761 91.1929 320.129 91.7462C319.512 92.2994 318.894 93.0087 318.277 93.874C317.66 94.7392 317.036 95.8032 316.404 97.0657C315.774 98.3283 315.122 99.8319 314.449 101.577C314.326 102.059 314.148 102.378 313.914 102.534C313.695 102.69 313.455 102.768 313.194 102.768ZM326.8 102.768C326.046 102.768 325.374 102.556 324.783 102.13C324.194 101.719 323.728 101.137 323.384 100.385C323.055 99.6333 322.89 98.7539 322.89 97.7466C322.89 96.6686 323.013 95.6188 323.26 94.5974C323.507 93.562 323.823 92.6327 324.207 91.81C324.592 90.973 324.976 90.3134 325.36 89.8311C325.758 89.3346 326.1 89.0864 326.389 89.0864C326.691 89.0864 326.938 89.1786 327.129 89.363C327.335 89.5473 327.438 89.824 327.438 90.1928C327.438 90.2495 327.376 90.4553 327.253 90.8099C327.144 91.1504 327 91.5901 326.821 92.1292C326.643 92.654 326.465 93.2428 326.286 93.8953C326.108 94.5336 325.956 95.1861 325.833 95.8529C325.724 96.5196 325.668 97.158 325.668 97.7679C325.668 98.5055 325.778 99.0943 325.997 99.534C326.218 99.9737 326.691 100.194 327.418 100.194C328.158 100.194 328.879 99.9737 329.578 99.534C330.293 99.0943 330.978 98.5055 331.636 97.7679C332.295 97.016 332.927 96.1792 333.53 95.2571C332.817 95.3138 332.145 95.3422 331.513 95.3422C331.088 95.3422 330.779 95.2996 330.587 95.2145C330.396 95.1153 330.272 94.9876 330.216 94.8315C330.175 94.6754 330.155 94.4911 330.155 94.2783C330.155 93.9804 330.285 93.7109 330.546 93.4697C330.807 93.2285 331.095 93.1008 331.41 93.0867C332.001 93.0441 332.598 92.9944 333.201 92.9377C333.818 92.881 334.429 92.8172 335.032 92.7462C335.485 91.9092 335.904 91.0794 336.287 90.2567C336.686 89.4197 337.049 88.6324 337.378 87.8948C337.694 86.9727 338.031 86.1215 338.387 85.3414C338.757 84.5469 339.114 83.9086 339.457 83.4263C339.801 82.9441 340.123 82.7029 340.424 82.7029C340.781 82.7029 341.049 82.8021 341.227 83.0008C341.419 83.1994 341.515 83.4618 341.515 83.7881C341.515 83.8873 341.447 84.1782 341.309 84.6605C341.172 85.1427 340.98 85.767 340.733 86.533C340.501 87.299 340.233 88.1643 339.93 89.1289C339.642 90.0793 339.333 91.0865 339.004 92.1504C340.308 91.9235 341.494 91.7036 342.564 91.4908C343.649 91.278 344.534 91.1007 345.219 90.9589C345.906 90.8171 346.317 90.7461 346.454 90.7461C346.729 90.7461 346.955 90.8809 347.133 91.1504C347.313 91.4057 347.401 91.6539 347.401 91.8951C347.401 92.0369 347.148 92.2214 346.639 92.4483C346.145 92.6753 345.466 92.9236 344.602 93.1931C343.752 93.4484 342.778 93.7109 341.679 93.9804C340.596 94.2357 339.457 94.4626 338.263 94.6613C337.934 95.7819 337.619 96.8814 337.316 97.9594C337.028 99.0233 336.781 100.009 336.576 100.917C336.48 101.314 336.323 101.619 336.102 101.832C335.896 102.031 335.616 102.13 335.258 102.13C334.888 102.13 334.615 102.038 334.435 101.853C334.257 101.683 334.168 101.371 334.168 100.917C334.168 100.875 334.209 100.64 334.291 100.215C334.388 99.7752 334.504 99.2361 334.641 98.5978C334.793 97.9453 334.937 97.2785 335.073 96.5976C334.265 97.7608 333.406 98.8105 332.501 99.7468C331.595 100.683 330.663 101.421 329.702 101.96C328.742 102.499 327.775 102.768 326.8 102.768ZM326.862 87.6182C326.409 87.6182 326.039 87.4764 325.751 87.1926C325.462 86.8947 325.318 86.5471 325.318 86.15C325.318 85.6677 325.49 85.2563 325.833 84.9158C326.19 84.5754 326.609 84.4051 327.088 84.4051C327.623 84.4051 328.029 84.5541 328.302 84.852C328.591 85.1499 328.735 85.547 328.735 86.0436C328.735 86.3982 328.557 86.7529 328.2 87.1075C327.844 87.4479 327.397 87.6182 326.862 87.6182ZM344.935 102.151C344.552 102.151 344.209 102.016 343.907 101.747C343.618 101.477 343.474 101.038 343.474 100.428C343.474 100.101 343.515 99.6404 343.598 99.0446C343.695 98.4488 343.818 97.8033 343.968 97.1083C344.12 96.399 344.284 95.6968 344.462 95.0017C344.655 94.3067 344.84 93.6896 345.018 93.1505C345.197 92.5973 345.354 92.1859 345.491 91.9164C345.671 91.5901 345.835 91.3916 345.985 91.3206C346.15 91.2355 346.308 91.1929 346.458 91.1929C346.733 91.1929 346.988 91.278 347.22 91.4483C347.467 91.6185 347.59 91.9943 347.59 92.576C347.59 92.8029 347.549 93.1718 347.467 93.6825C347.385 94.179 347.282 94.7605 347.158 95.4273C347.035 96.0941 346.898 96.782 346.747 97.4913C346.61 98.2006 346.473 98.8744 346.335 99.5127C346.211 100.137 346.109 100.662 346.026 101.087C345.959 101.442 345.815 101.704 345.594 101.875C345.388 102.059 345.169 102.151 344.935 102.151ZM347.302 89.0864C346.849 89.0864 346.432 88.9516 346.047 88.6821C345.663 88.3983 345.471 87.9658 345.471 87.3841C345.471 86.9018 345.588 86.5117 345.82 86.2138C346.054 85.9159 346.329 85.7031 346.644 85.5754C346.973 85.4336 347.261 85.3627 347.508 85.3627C347.755 85.3627 348.03 85.4194 348.331 85.5329C348.634 85.6321 348.894 85.8236 349.113 86.1074C349.347 86.3769 349.463 86.767 349.463 87.2777C349.463 87.6182 349.347 87.9302 349.113 88.214C348.881 88.4834 348.593 88.6962 348.249 88.8523C347.92 89.0084 347.605 89.0864 347.302 89.0864ZM353.373 102.556C352.522 102.556 351.837 102.25 351.315 101.641C350.793 101.016 350.533 100.016 350.533 98.6403C350.533 97.7608 350.629 96.8814 350.821 96.0018C351.027 95.1081 351.308 94.2641 351.665 93.4697C352.036 92.6611 352.46 91.9448 352.941 91.3206C353.435 90.6964 353.977 90.207 354.567 89.8524C355.156 89.4835 355.768 89.2992 356.399 89.2992C357.469 89.2992 358.305 89.597 358.909 90.1928C359.514 90.7886 359.815 91.5475 359.815 92.4696C359.815 93.1789 359.622 93.8243 359.239 94.4059C358.868 94.9733 358.361 95.484 357.716 95.938C357.07 96.392 356.35 96.8032 355.555 97.1721C354.76 97.541 353.942 97.8743 353.106 98.1722C353.037 98.6829 353.003 99.1369 353.003 99.534C353.003 99.7752 353.134 99.8957 353.394 99.8957C354.011 99.8957 354.67 99.7965 355.37 99.5978C356.083 99.3851 356.803 99.1156 357.53 98.7893C358.258 98.4488 358.958 98.1012 359.63 97.7466C360.301 97.3778 360.913 97.0303 361.461 96.704C362.024 96.3635 362.483 96.0941 362.84 95.8954C363.211 95.6826 363.45 95.5762 363.56 95.5762C363.862 95.5762 364.082 95.6685 364.219 95.8529C364.356 96.0372 364.425 96.2359 364.425 96.4487C364.425 96.5479 364.24 96.7678 363.869 97.1083C363.512 97.4487 363.018 97.853 362.387 98.3211C361.77 98.7751 361.07 99.2502 360.288 99.7468C359.519 100.229 358.717 100.69 357.88 101.13C357.057 101.555 356.254 101.896 355.472 102.151C354.704 102.421 354.004 102.556 353.373 102.556ZM353.456 96.2784C354.019 95.938 354.574 95.5834 355.123 95.2145C355.686 94.8315 356.152 94.4059 356.522 93.9378C356.892 93.4556 357.078 92.8952 357.078 92.2568C357.078 92.0725 357.029 91.9518 356.934 91.8951C356.838 91.8241 356.7 91.7887 356.522 91.7887C356.041 91.7887 355.603 92.0086 355.205 92.4483C354.821 92.888 354.477 93.4556 354.176 94.1506C353.888 94.8315 353.648 95.5408 353.456 96.2784ZM365.091 102.917C364.501 102.917 364.082 102.832 363.835 102.662C363.602 102.492 363.485 102.243 363.485 101.917C363.485 101.633 363.581 101.392 363.774 101.194C363.966 100.981 364.391 100.768 365.05 100.555C365.818 100.314 366.545 100.038 367.231 99.7255C367.931 99.3992 368.5 99.0446 368.939 98.6616C369.392 98.2786 369.618 97.8743 369.618 97.4487C369.618 97.165 369.523 96.9593 369.33 96.8317C369.152 96.704 368.939 96.6402 368.692 96.6402C368.486 96.6402 368.185 96.6756 367.787 96.7465C367.403 96.8032 366.977 96.8814 366.511 96.9806C366.045 97.0657 365.592 97.1437 365.152 97.2147C364.728 97.2714 364.363 97.2998 364.062 97.2998C363.349 97.2998 362.82 97.1367 362.477 96.8104C362.134 96.4699 361.963 96.0372 361.963 95.5124C361.963 95.2286 362.107 94.8386 362.395 94.3421C362.683 93.8456 363.066 93.2995 363.547 92.7037C364.028 92.1079 364.563 91.5121 365.152 90.9163C365.742 90.3205 366.339 89.7744 366.943 89.2779C367.56 88.7672 368.144 88.3629 368.692 88.065C369.24 87.753 369.708 87.5969 370.092 87.5969C370.531 87.5969 370.881 87.7387 371.141 88.0225C371.416 88.3062 371.553 88.6892 371.553 89.1715C371.553 89.3984 371.532 89.6467 371.491 89.9162C371.45 90.1716 371.347 90.4056 371.182 90.6184C371.018 90.8171 370.763 90.9589 370.421 91.044C370.078 91.1291 369.611 91.1149 369.021 91.0014C368.555 91.356 368.067 91.7462 367.56 92.1717C367.066 92.5831 366.6 93.0157 366.161 93.4697C365.721 93.9094 365.358 94.3421 365.07 94.7677C365.577 94.5974 366.153 94.4626 366.799 94.3634C367.444 94.2498 368.095 94.1932 368.754 94.1932C369.549 94.1932 370.195 94.3421 370.688 94.64C371.196 94.9238 371.566 95.3068 371.8 95.789C372.047 96.2713 372.17 96.8032 372.17 97.3849C372.17 98.0374 371.964 98.69 371.553 99.3425C371.141 99.995 370.593 100.591 369.906 101.13C369.22 101.669 368.458 102.102 367.622 102.428C366.786 102.754 365.942 102.917 365.091 102.917Z" fill="#0166FF"/>
<path d="M39.69 299.229H26.8609V297.227H32.436V290.616H26.8609V288.606H39.69V290.616H34.0961V297.227H39.69V299.229ZM39.69 285.848H30.0681V283.911H39.69V285.848ZM28.5836 284.871C28.5836 285.206 28.4749 285.497 28.2578 285.738C28.0364 285.976 27.7735 286.094 27.4686 286.094C27.1596 286.094 26.8965 285.976 26.6792 285.738C26.4579 285.497 26.3473 285.206 26.3473 284.871C26.3473 284.533 26.4579 284.246 26.6792 284.009C26.8965 283.767 27.1596 283.646 27.4686 283.646C27.7735 283.646 28.0364 283.767 28.2578 284.009C28.4749 284.246 28.5836 284.533 28.5836 284.871ZM43.4986 277.136C43.4986 277.925 43.3984 278.606 43.198 279.176C42.9975 279.741 42.7323 280.203 42.4025 280.562C42.0724 280.92 41.7113 281.188 41.3188 281.364L40.6546 279.7C40.8384 279.583 41.0327 279.428 41.2373 279.233C41.4461 279.036 41.6235 278.767 41.7698 278.431C41.9159 278.089 41.9889 277.651 41.9889 277.116C41.9889 276.382 41.8156 275.776 41.469 275.295C41.1266 274.817 40.5795 274.576 39.8277 274.576H37.936V274.7C38.1406 274.817 38.3683 274.985 38.6188 275.206C38.8695 275.421 39.0866 275.719 39.2703 276.099C39.4541 276.479 39.5459 276.973 39.5459 277.583C39.5459 278.369 39.3684 279.077 39.0135 279.706C38.6544 280.332 38.1261 280.829 37.4286 281.195C36.7271 281.559 35.8646 281.74 34.8415 281.74C33.8184 281.74 32.9414 281.56 32.2105 281.203C31.4798 280.84 30.9201 280.343 30.5318 279.714C30.1391 279.083 29.9429 278.369 29.9429 277.569C29.9429 276.952 30.0431 276.453 30.2436 276.073C30.4399 275.694 30.6695 275.397 30.9326 275.186C31.1958 274.97 31.4276 274.803 31.6279 274.687V274.545H30.0681V272.646H39.903C40.7299 272.646 41.4084 272.845 41.9388 273.242C42.4692 273.64 42.8618 274.178 43.1166 274.856C43.3713 275.529 43.4986 276.289 43.4986 277.136ZM37.9925 277.154C37.9925 276.598 37.8671 276.127 37.6166 275.742C37.3618 275.355 36.9984 275.06 36.5266 274.862C36.0504 274.658 35.4805 274.558 34.8165 274.558C34.1691 274.558 33.5991 274.657 33.1063 274.856C32.6136 275.054 32.2293 275.345 31.9537 275.73C31.674 276.115 31.534 276.589 31.534 277.154C31.534 277.738 31.6801 278.223 31.9725 278.612C32.2606 279.001 32.6533 279.294 33.1501 279.493C33.6471 279.688 34.2025 279.784 34.8165 279.784C35.447 279.784 36.0005 279.685 36.4764 279.486C36.9526 279.288 37.3242 278.995 37.5914 278.606C37.8588 278.212 37.9925 277.729 37.9925 277.154ZM33.977 268.112H39.69V270.05H26.8609V268.14H31.6343V268.017C31.1164 267.783 30.7051 267.427 30.4002 266.947C30.0953 266.468 29.9429 265.842 29.9429 265.07C29.9429 264.387 30.0786 263.791 30.3501 263.281C30.6216 262.767 31.0266 262.37 31.5653 262.089C32.0998 261.805 32.7681 261.662 33.5698 261.662H39.69V263.598H33.7955C33.0896 263.598 32.5426 263.787 32.1542 264.162C31.7616 264.538 31.5653 265.06 31.5653 265.729C31.5653 266.187 31.6593 266.597 31.8473 266.96C32.0351 267.319 32.3108 267.602 32.6741 267.808C33.0333 268.012 33.4675 268.112 33.977 268.112ZM26.8609 252.094H39.69V254.096H26.8609V252.094ZM39.69 249.336H30.0681V247.477H31.6343V247.354C31.1039 247.146 30.6904 246.807 30.3939 246.337C30.0933 245.866 29.9429 245.302 29.9429 244.645C29.9429 243.981 30.0933 243.425 30.3939 242.975C30.6946 242.522 31.108 242.188 31.6343 241.972V241.867C31.1206 241.63 30.7112 241.253 30.4065 240.735C30.0974 240.217 29.9429 239.598 29.9429 238.882C29.9429 237.979 30.2164 237.244 30.7636 236.674C31.3106 236.099 32.1354 235.812 33.2379 235.812H39.69V237.748H33.4133C32.7618 237.748 32.2899 237.932 31.9975 238.298C31.7053 238.666 31.559 239.104 31.559 239.613C31.559 240.244 31.747 240.735 32.1229 241.084C32.4945 241.434 32.9727 241.609 33.5573 241.609H39.69V243.539H33.2942C32.7722 243.539 32.3525 243.708 32.0351 244.044C31.7178 244.381 31.559 244.819 31.559 245.358C31.559 245.726 31.6531 246.065 31.8409 246.375C32.0247 246.682 32.2815 246.93 32.6115 247.12C32.9414 247.305 33.3234 247.399 33.7578 247.399H39.69V249.336ZM43.2981 233.216H30.0681V231.325H31.6279V231.163C31.4276 231.052 31.1958 230.889 30.9326 230.678C30.6695 230.467 30.4399 230.172 30.2436 229.796C30.0431 229.421 29.9429 228.924 29.9429 228.307C29.9429 227.504 30.1391 226.787 30.5318 226.156C30.9243 225.527 31.4902 225.031 32.2293 224.674C32.9686 224.311 33.8581 224.13 34.898 224.13C35.9377 224.13 36.8294 224.308 37.5728 224.667C38.3119 225.025 38.8819 225.518 39.2828 226.144C39.6796 226.77 39.8779 227.485 39.8779 228.287C39.8779 228.892 39.7798 229.386 39.5836 229.77C39.3872 230.15 39.1576 230.448 38.8944 230.664C38.6313 230.88 38.3974 231.047 38.1928 231.163V231.28H43.2981V233.216ZM34.8791 231.319C35.5556 231.319 36.1486 231.217 36.6581 231.014C37.1676 230.812 37.5664 230.518 37.8546 230.134C38.1386 229.749 38.2806 229.278 38.2806 228.722C38.2806 228.143 38.1322 227.659 37.8358 227.27C37.5351 226.883 37.1279 226.588 36.6143 226.39C36.1006 226.187 35.5223 226.085 34.8791 226.085C34.2444 226.085 33.6743 226.185 33.1689 226.384C32.6637 226.577 32.2649 226.872 31.9725 227.264C31.6801 227.653 31.534 228.138 31.534 228.722C31.534 229.283 31.674 229.758 31.9537 230.146C32.2336 230.53 32.624 230.822 33.1251 231.021C33.6263 231.219 34.2109 231.319 34.8791 231.319ZM39.903 219.064C39.903 219.695 39.7903 220.265 39.5648 220.774C39.335 221.283 39.0031 221.688 38.5687 221.986C38.1345 222.279 37.6019 222.426 36.9714 222.426C36.4284 222.426 35.9816 222.318 35.6308 222.103C35.28 221.887 35.0023 221.595 34.7977 221.227C34.5931 220.861 34.4386 220.451 34.3341 219.998C34.2297 219.545 34.1503 219.083 34.0961 218.611C34.0292 218.016 33.9749 217.532 33.9332 217.16C33.8873 216.789 33.8141 216.519 33.714 216.351C33.6138 216.183 33.4509 216.098 33.2254 216.098H33.1814C32.6344 216.098 32.2105 216.259 31.9099 216.578C31.6091 216.892 31.4589 217.364 31.4589 217.99C31.4589 218.642 31.5987 219.156 31.8786 219.531C32.1542 219.902 32.4611 220.159 32.7994 220.302L32.3985 222.122C31.8137 221.905 31.3419 221.59 30.9828 221.176C30.6194 220.758 30.3564 220.276 30.1935 219.732C30.0264 219.188 29.9429 218.616 29.9429 218.016C29.9429 217.617 29.9889 217.196 30.0808 216.753C30.1684 216.303 30.3313 215.885 30.5694 215.496C30.8074 215.104 31.1477 214.781 31.5905 214.531C32.0288 214.28 32.5989 214.155 33.3005 214.155H39.69V216.046H38.3745V216.125C38.6168 216.25 38.8548 216.437 39.0886 216.687C39.3225 216.938 39.5167 217.26 39.6712 217.652C39.8257 218.046 39.903 218.516 39.903 219.064ZM38.3996 218.643C38.3996 218.108 38.2973 217.651 38.0926 217.271C37.8879 216.886 37.6207 216.595 37.2908 216.395C36.9567 216.193 36.5996 216.092 36.2196 216.092H34.9794C35.0461 216.161 35.1088 216.295 35.1673 216.493C35.2215 216.687 35.2696 216.911 35.3113 217.16C35.349 217.411 35.3844 217.655 35.4177 217.893C35.447 218.13 35.4721 218.329 35.493 218.488C35.5389 218.864 35.6162 219.207 35.7248 219.517C35.8333 219.824 35.99 220.071 36.1946 220.256C36.395 220.438 36.6623 220.528 36.9964 220.528C37.46 220.528 37.8108 220.352 38.0488 219.998C38.2826 219.643 38.3996 219.192 38.3996 218.643ZM39.8842 207.386C39.8842 208.348 39.6733 209.178 39.2515 209.872C38.8255 210.564 38.2388 211.094 37.4913 211.467C36.7437 211.837 35.8876 212.023 34.9229 212.023C33.9457 212.023 33.0834 211.833 32.3359 211.453C31.5841 211.073 30.9973 210.538 30.5756 209.846C30.1538 209.156 29.9429 208.342 29.9429 207.405C29.9429 206.649 30.0786 205.975 30.3501 205.384C30.6173 204.793 30.9932 204.316 31.4776 203.952C31.9621 203.586 32.5279 203.367 33.1753 203.299V205.183C32.7243 205.287 32.3359 205.524 32.0101 205.896C31.6844 206.262 31.5215 206.755 31.5215 207.372C31.5215 207.912 31.6593 208.386 31.9349 208.792C32.2064 209.193 32.5948 209.506 33.1 209.729C33.6013 209.954 34.1943 210.067 34.8791 210.067C35.5806 210.067 36.1863 209.957 36.6958 209.737C37.2053 209.517 37.5998 209.205 37.8797 208.804C38.1594 208.398 38.2994 207.921 38.2994 207.372C38.2994 207.006 38.2346 206.673 38.1052 206.375C37.9716 206.072 37.7815 205.82 37.5351 205.618C37.2888 205.41 36.9923 205.265 36.6456 205.183V203.299C37.2679 203.367 37.8233 203.577 38.3119 203.926C38.8005 204.276 39.1846 204.746 39.4645 205.332C39.7443 205.916 39.8842 206.6 39.8842 207.386ZM30.0681 196.584H31.5716V202.017H30.0681V196.584ZM27.763 200.56V198.624H36.8648C37.2282 198.624 37.5018 198.567 37.6855 198.456C37.865 198.344 37.9882 198.198 38.0551 198.022C38.1177 197.841 38.149 197.643 38.149 197.432C38.149 197.277 38.1386 197.14 38.1177 197.025C38.0968 196.908 38.0801 196.816 38.0676 196.753L39.6149 196.403C39.6566 196.516 39.6984 196.675 39.7401 196.882C39.786 197.088 39.8111 197.348 39.8153 197.658C39.8236 198.169 39.7359 198.643 39.5521 199.084C39.3684 199.525 39.0845 199.881 38.7003 200.153C38.316 200.425 37.8337 200.56 37.2532 200.56H27.763ZM39.9218 181.35L38.8067 182.516L34.8916 178.468V188.636H33.2629V178.468L29.354 182.516L28.2328 181.35L34.0773 175.307L39.9218 181.35Z" fill="#737373"/>
<path d="M563.519 417.966V404.702H571.474V406.424H565.455V410.466H570.905V412.183H565.455V417.966H563.519ZM576.471 418.187C575.861 418.187 575.309 418.07 574.817 417.837C574.324 417.6 573.933 417.257 573.645 416.807C573.362 416.358 573.219 415.808 573.219 415.156C573.219 414.594 573.323 414.132 573.532 413.77C573.741 413.407 574.023 413.119 574.377 412.908C574.733 412.697 575.13 412.537 575.568 412.429C576.006 412.322 576.453 412.239 576.909 412.183C577.485 412.113 577.952 412.057 578.313 412.015C578.671 411.967 578.931 411.891 579.095 411.788C579.258 411.683 579.339 411.516 579.339 411.282V411.236C579.339 410.671 579.184 410.233 578.876 409.922C578.571 409.612 578.116 409.457 577.51 409.457C576.879 409.457 576.383 409.601 576.019 409.89C575.661 410.175 575.412 410.492 575.274 410.841L573.513 410.428C573.722 409.823 574.028 409.335 574.429 408.964C574.833 408.589 575.299 408.317 575.825 408.148C576.352 407.975 576.904 407.888 577.485 407.888C577.869 407.888 578.276 407.937 578.707 408.031C579.142 408.122 579.546 408.291 579.922 408.536C580.302 408.782 580.613 409.134 580.856 409.592C581.097 410.045 581.219 410.634 581.219 411.359V417.966H579.39V416.606H579.314C579.193 416.857 579.011 417.103 578.77 417.345C578.527 417.586 578.216 417.787 577.836 417.947C577.456 418.106 577.001 418.187 576.471 418.187ZM576.878 416.632C577.395 416.632 577.838 416.527 578.205 416.314C578.577 416.103 578.859 415.826 579.051 415.486C579.248 415.141 579.346 414.772 579.346 414.378V413.095C579.278 413.165 579.149 413.23 578.958 413.29C578.77 413.346 578.554 413.396 578.313 413.439C578.07 413.478 577.833 413.515 577.604 413.55C577.375 413.58 577.182 413.606 577.028 413.627C576.665 413.674 576.333 413.755 576.031 413.867C575.736 413.978 575.498 414.141 575.318 414.352C575.142 414.56 575.055 414.835 575.055 415.182C575.055 415.661 575.226 416.024 575.568 416.27C575.911 416.512 576.347 416.632 576.878 416.632ZM587.766 418.167C586.836 418.167 586.033 417.95 585.361 417.513C584.692 417.073 584.179 416.466 583.819 415.693C583.461 414.92 583.281 414.034 583.281 413.037C583.281 412.027 583.465 411.136 583.832 410.362C584.2 409.586 584.717 408.979 585.386 408.543C586.054 408.107 586.842 407.888 587.747 407.888C588.478 407.888 589.13 408.029 589.702 408.309C590.274 408.586 590.736 408.975 591.087 409.475C591.441 409.976 591.653 410.561 591.719 411.23H589.896C589.796 410.764 589.565 410.362 589.207 410.026C588.852 409.689 588.376 409.52 587.779 409.52C587.256 409.52 586.799 409.663 586.406 409.947C586.018 410.229 585.716 410.63 585.498 411.153C585.282 411.671 585.173 412.283 585.173 412.992C585.173 413.718 585.279 414.343 585.492 414.87C585.705 415.398 586.007 415.805 586.395 416.094C586.787 416.384 587.249 416.529 587.779 416.529C588.134 416.529 588.456 416.462 588.744 416.328C589.036 416.19 589.28 415.994 589.476 415.738C589.677 415.483 589.817 415.177 589.896 414.819H591.719C591.653 415.462 591.45 416.036 591.112 416.541C590.774 417.047 590.32 417.443 589.752 417.734C589.188 418.023 588.526 418.167 587.766 418.167ZM598.213 408.019V409.572H592.958V408.019H598.213ZM594.366 405.634H596.241V415.045C596.241 415.421 596.295 415.703 596.402 415.893C596.511 416.08 596.651 416.206 596.823 416.276C596.998 416.34 597.189 416.373 597.393 416.373C597.543 416.373 597.674 416.363 597.787 416.34C597.9 416.319 597.989 416.302 598.05 416.288L598.388 417.889C598.28 417.931 598.125 417.975 597.925 418.018C597.725 418.065 597.474 418.091 597.174 418.096C596.68 418.105 596.222 418.013 595.795 417.823C595.369 417.633 595.025 417.34 594.762 416.943C594.499 416.545 594.366 416.047 594.366 415.446V405.634ZM604.235 418.167C603.333 418.167 602.546 417.953 601.874 417.526C601.201 417.098 600.679 416.501 600.307 415.732C599.935 414.963 599.75 414.065 599.75 413.037C599.75 412.005 599.935 411.103 600.307 410.33C600.679 409.557 601.201 408.956 601.874 408.529C602.546 408.102 603.333 407.888 604.235 407.888C605.137 407.888 605.924 408.102 606.597 408.529C607.269 408.956 607.791 409.557 608.162 410.33C608.534 411.103 608.72 412.005 608.72 413.037C608.72 414.065 608.534 414.963 608.162 415.732C607.791 416.501 607.269 417.098 606.597 417.526C605.924 417.953 605.137 418.167 604.235 418.167ZM604.24 416.541C604.826 416.541 605.311 416.381 605.694 416.062C606.078 415.743 606.363 415.317 606.547 414.787C606.734 414.255 606.828 413.67 606.828 413.031C606.828 412.396 606.734 411.814 606.547 411.282C606.363 410.747 606.078 410.317 605.694 409.993C605.311 409.669 604.826 409.508 604.24 409.508C603.652 409.508 603.163 409.669 602.775 409.993C602.391 410.317 602.105 410.747 601.916 411.282C601.733 411.814 601.642 412.396 601.642 413.031C601.642 413.67 601.733 414.255 601.916 414.787C602.105 415.317 602.391 415.743 602.775 416.062C603.163 416.381 603.652 416.541 604.24 416.541ZM610.811 417.966V408.019H612.621V409.598H612.721C612.897 409.063 613.206 408.642 613.648 408.335C614.095 408.025 614.601 407.87 615.164 407.87C615.282 407.87 615.418 407.873 615.577 407.882C615.74 407.891 615.868 407.902 615.959 407.914V409.767C615.884 409.745 615.751 409.721 615.559 409.695C615.367 409.665 615.174 409.65 614.983 409.65C614.539 409.65 614.145 409.747 613.798 409.941C613.456 410.131 613.185 410.397 612.984 410.738C612.784 411.075 612.684 411.46 612.684 411.891V417.966H610.811ZM622.399 417.966V404.702H624.335V416.243H630.148V417.966H622.399ZM632.206 417.966V408.019H634.079V417.966H632.206ZM633.152 406.484C632.826 406.484 632.547 406.371 632.313 406.146C632.082 405.917 631.968 405.645 631.968 405.33C631.968 405.011 632.082 404.739 632.313 404.514C632.547 404.286 632.826 404.17 633.152 404.17C633.477 404.17 633.755 404.286 633.984 404.514C634.22 404.739 634.336 405.011 634.336 405.33C634.336 405.645 634.22 405.917 633.984 406.146C633.755 406.371 633.477 406.484 633.152 406.484ZM643.808 410.448L642.112 410.758C642.04 410.533 641.928 410.32 641.772 410.116C641.623 409.914 641.418 409.747 641.16 409.618C640.901 409.488 640.576 409.423 640.188 409.423C639.657 409.423 639.215 409.546 638.86 409.792C638.505 410.034 638.328 410.347 638.328 410.732C638.328 411.065 638.447 411.332 638.685 411.534C638.922 411.738 639.307 411.904 639.838 412.034L641.365 412.396C642.252 412.607 642.912 412.934 643.345 413.375C643.779 413.814 643.997 414.387 643.997 415.091C643.997 415.687 643.83 416.217 643.495 416.684C643.166 417.146 642.705 417.509 642.112 417.772C641.523 418.035 640.839 418.167 640.063 418.167C638.985 418.167 638.106 417.93 637.426 417.454C636.745 416.975 636.328 416.296 636.173 415.414L637.983 415.13C638.096 415.618 638.328 415.986 638.678 416.237C639.03 416.483 639.487 416.606 640.051 416.606C640.664 416.606 641.155 416.474 641.523 416.211C641.89 415.943 642.074 415.618 642.074 415.234C642.074 414.922 641.961 414.661 641.736 414.449C641.514 414.238 641.174 414.078 640.714 413.971L639.085 413.601C638.187 413.39 637.524 413.053 637.094 412.591C636.667 412.129 636.456 411.543 636.456 410.835C636.456 410.248 636.613 409.735 636.93 409.294C637.248 408.853 637.687 408.51 638.246 408.263C638.806 408.014 639.447 407.888 640.169 407.888C641.209 407.888 642.028 408.122 642.625 408.589C643.222 409.051 643.617 409.669 643.808 410.448ZM650.548 408.019V409.572H645.292V408.019H650.548ZM646.701 405.634H648.574V415.045C648.574 415.421 648.629 415.703 648.737 415.893C648.846 416.08 648.986 416.206 649.156 416.276C649.333 416.34 649.522 416.373 649.727 416.373C649.878 416.373 650.009 416.363 650.122 416.34C650.234 416.319 650.322 416.302 650.385 416.288L650.723 417.889C650.615 417.931 650.46 417.975 650.259 418.018C650.059 418.065 649.809 418.091 649.508 418.096C649.015 418.105 648.555 418.013 648.13 417.823C647.704 417.633 647.358 417.34 647.095 416.943C646.834 416.545 646.701 416.047 646.701 415.446V405.634Z" fill="#737373"/>
<defs>
<linearGradient id="paint0_linear_2144_95480" x1="72.03" y1="82.9684" x2="72.03" y2="373.89" gradientUnits="userSpaceOnUse">
<stop stop-color="#3395FF"/>
<stop offset="1" stop-color="#0166FF"/>
</linearGradient>
<linearGradient id="paint1_linear_2144_95480" x1="108.437" y1="131.908" x2="108.437" y2="373.89" gradientUnits="userSpaceOnUse">
<stop stop-color="#3395FF"/>
<stop offset="1" stop-color="#0166FF"/>
</linearGradient>
<linearGradient id="paint2_linear_2144_95480" x1="144.844" y1="134.628" x2="144.844" y2="373.89" gradientUnits="userSpaceOnUse">
<stop stop-color="#3395FF"/>
<stop offset="1" stop-color="#0166FF"/>
</linearGradient>
<linearGradient id="paint3_linear_2144_95480" x1="181.251" y1="261.056" x2="181.251" y2="373.89" gradientUnits="userSpaceOnUse">
<stop stop-color="#CED2DA"/>
<stop offset="1" stop-color="#97A1AF"/>
</linearGradient>
<linearGradient id="paint4_linear_2144_95480" x1="217.659" y1="265.134" x2="217.659" y2="373.89" gradientUnits="userSpaceOnUse">
<stop stop-color="#CED2DA"/>
<stop offset="1" stop-color="#97A1AF"/>
</linearGradient>
<linearGradient id="paint5_linear_2144_95480" x1="254.065" y1="266.494" x2="254.065" y2="373.89" gradientUnits="userSpaceOnUse">
<stop stop-color="#CED2DA"/>
<stop offset="1" stop-color="#97A1AF"/>
</linearGradient>
<linearGradient id="paint6_linear_2144_95480" x1="290.472" y1="266.494" x2="290.472" y2="373.89" gradientUnits="userSpaceOnUse">
<stop stop-color="#CED2DA"/>
<stop offset="1" stop-color="#97A1AF"/>
</linearGradient>
<linearGradient id="paint7_linear_2144_95480" x1="326.879" y1="273.291" x2="326.879" y2="373.89" gradientUnits="userSpaceOnUse">
<stop stop-color="#CED2DA"/>
<stop offset="1" stop-color="#97A1AF"/>
</linearGradient>
<linearGradient id="paint8_linear_2144_95480" x1="363.286" y1="278.729" x2="363.286" y2="373.89" gradientUnits="userSpaceOnUse">
<stop stop-color="#CED2DA"/>
<stop offset="1" stop-color="#97A1AF"/>
</linearGradient>
<linearGradient id="paint9_linear_2144_95480" x1="399.693" y1="280.088" x2="399.693" y2="373.89" gradientUnits="userSpaceOnUse">
<stop stop-color="#CED2DA"/>
<stop offset="1" stop-color="#97A1AF"/>
</linearGradient>
<linearGradient id="paint10_linear_2144_95480" x1="436.1" y1="285.526" x2="436.1" y2="373.89" gradientUnits="userSpaceOnUse">
<stop stop-color="#CED2DA"/>
<stop offset="1" stop-color="#97A1AF"/>
</linearGradient>
<linearGradient id="paint11_linear_2144_95480" x1="472.507" y1="290.964" x2="472.507" y2="373.89" gradientUnits="userSpaceOnUse">
<stop stop-color="#CED2DA"/>
<stop offset="1" stop-color="#97A1AF"/>
</linearGradient>
<linearGradient id="paint12_linear_2144_95480" x1="508.914" y1="293.683" x2="508.914" y2="373.89" gradientUnits="userSpaceOnUse">
<stop stop-color="#CED2DA"/>
<stop offset="1" stop-color="#97A1AF"/>
</linearGradient>
<linearGradient id="paint13_linear_2144_95480" x1="545.321" y1="296.402" x2="545.321" y2="373.89" gradientUnits="userSpaceOnUse">
<stop stop-color="#CED2DA"/>
<stop offset="1" stop-color="#97A1AF"/>
</linearGradient>
<linearGradient id="paint14_linear_2144_95480" x1="581.727" y1="303.199" x2="581.727" y2="373.89" gradientUnits="userSpaceOnUse">
<stop stop-color="#CED2DA"/>
<stop offset="1" stop-color="#97A1AF"/>
</linearGradient>
<linearGradient id="paint15_linear_2144_95480" x1="618.135" y1="304.558" x2="618.135" y2="373.89" gradientUnits="userSpaceOnUse">
<stop stop-color="#CED2DA"/>
<stop offset="1" stop-color="#97A1AF"/>
</linearGradient>
<linearGradient id="paint16_linear_2144_95480" x1="654.542" y1="305.918" x2="654.542" y2="373.89" gradientUnits="userSpaceOnUse">
<stop stop-color="#CED2DA"/>
<stop offset="1" stop-color="#97A1AF"/>
</linearGradient>
<linearGradient id="paint17_linear_2144_95480" x1="690.948" y1="308.637" x2="690.948" y2="373.89" gradientUnits="userSpaceOnUse">
<stop stop-color="#CED2DA"/>
<stop offset="1" stop-color="#97A1AF"/>
</linearGradient>
<linearGradient id="paint18_linear_2144_95480" x1="727.356" y1="315.434" x2="727.356" y2="373.89" gradientUnits="userSpaceOnUse">
<stop stop-color="#CED2DA"/>
<stop offset="1" stop-color="#97A1AF"/>
</linearGradient>
<linearGradient id="paint19_linear_2144_95480" x1="763.763" y1="320.872" x2="763.763" y2="373.89" gradientUnits="userSpaceOnUse">
<stop stop-color="#CED2DA"/>
<stop offset="1" stop-color="#97A1AF"/>
</linearGradient>
<linearGradient id="paint20_linear_2144_95480" x1="800.17" y1="326.309" x2="800.17" y2="373.89" gradientUnits="userSpaceOnUse">
<stop stop-color="#CED2DA"/>
<stop offset="1" stop-color="#97A1AF"/>
</linearGradient>
<linearGradient id="paint21_linear_2144_95480" x1="836.577" y1="329.028" x2="836.577" y2="373.89" gradientUnits="userSpaceOnUse">
<stop stop-color="#CED2DA"/>
<stop offset="1" stop-color="#97A1AF"/>
</linearGradient>
<linearGradient id="paint22_linear_2144_95480" x1="872.985" y1="333.107" x2="872.985" y2="373.89" gradientUnits="userSpaceOnUse">
<stop stop-color="#CED2DA"/>
<stop offset="1" stop-color="#97A1AF"/>
</linearGradient>
<linearGradient id="paint23_linear_2144_95480" x1="909.391" y1="338.544" x2="909.391" y2="373.89" gradientUnits="userSpaceOnUse">
<stop stop-color="#CED2DA"/>
<stop offset="1" stop-color="#97A1AF"/>
</linearGradient>
<linearGradient id="paint24_linear_2144_95480" x1="945.798" y1="341.263" x2="945.798" y2="373.89" gradientUnits="userSpaceOnUse">
<stop stop-color="#CED2DA"/>
<stop offset="1" stop-color="#97A1AF"/>
</linearGradient>
<linearGradient id="paint25_linear_2144_95480" x1="982.205" y1="343.982" x2="982.205" y2="373.89" gradientUnits="userSpaceOnUse">
<stop stop-color="#CED2DA"/>
<stop offset="1" stop-color="#97A1AF"/>
</linearGradient>
<linearGradient id="paint26_linear_2144_95480" x1="1018.61" y1="350.779" x2="1018.61" y2="373.89" gradientUnits="userSpaceOnUse">
<stop stop-color="#CED2DA"/>
<stop offset="1" stop-color="#97A1AF"/>
</linearGradient>
<linearGradient id="paint27_linear_2144_95480" x1="1055.02" y1="356.217" x2="1055.02" y2="373.89" gradientUnits="userSpaceOnUse">
<stop stop-color="#CED2DA"/>
<stop offset="1" stop-color="#97A1AF"/>
</linearGradient>
<linearGradient id="paint28_linear_2144_95480" x1="1091.43" y1="357.577" x2="1091.43" y2="373.89" gradientUnits="userSpaceOnUse">
<stop stop-color="#CED2DA"/>
<stop offset="1" stop-color="#97A1AF"/>
</linearGradient>
<linearGradient id="paint29_linear_2144_95480" x1="1127.83" y1="361.655" x2="1127.83" y2="373.89" gradientUnits="userSpaceOnUse">
<stop stop-color="#CED2DA"/>
<stop offset="1" stop-color="#97A1AF"/>
</linearGradient>
<linearGradient id="paint30_linear_2144_95480" x1="1164.24" y1="364.374" x2="1164.24" y2="373.89" gradientUnits="userSpaceOnUse">
<stop stop-color="#CED2DA"/>
<stop offset="1" stop-color="#97A1AF"/>
</linearGradient>
<linearGradient id="paint31_linear_2144_95480" x1="229.152" y1="156.245" x2="221.796" y2="129.691" gradientUnits="userSpaceOnUse">
<stop stop-color="#3395FF"/>
<stop offset="1" stop-color="#0166FF"/>
</linearGradient>
</defs>
</svg>
