<svg width="24" height="12" viewBox="0 0 24 12" fill="none" xmlns="http://www.w3.org/2000/svg">
<path d="M24.0012 0.000198507C24.001 6.62737 18.6282 12.0004 12.0012 12.0012L12.0012 0.000198364L24.0012 0.000198507Z" fill="#3B82F6"/>
<path d="M-5.24579e-07 12.001C-2.34889e-07 5.37364 5.37286 0.000797009 12 0L12 12.001L-5.24579e-07 12.001Z" fill="#3B82F6"/>
<path d="M20.1611 1.92091C20.1608 6.42734 16.5065 10.0808 12 10.0811L12 1.92091L20.1611 1.92091Z" fill="white"/>
<path d="M3.83984 10.0799C3.84022 5.5737 7.49388 1.92034 12 1.91972L12 10.0799L3.83984 10.0799Z" fill="white"/>
<path d="M13.04 10.8011C10.5648 10.1746 9.09593 7.77134 9.75891 5.43352L14.241 6.56782L13.04 10.8011Z" fill="#3B82F6"/>
<path d="M10.96 1.20012C13.4352 1.82654 14.9041 4.22985 14.2411 6.56765L9.75897 5.43336L10.96 1.20012Z" fill="#3B82F6"/>
</svg>
