<svg width="32" height="32" viewBox="0 0 32 32" fill="none" xmlns="http://www.w3.org/2000/svg">
<path d="M0 12.8C0 8.31958 0 6.07937 0.871948 4.36808C1.63893 2.86278 2.86278 1.63893 4.36808 0.871948C6.07937 0 8.31958 0 12.8 0H19.2C23.6804 0 25.9206 0 27.6319 0.871948C29.1372 1.63893 30.3611 2.86278 31.1281 4.36808C32 6.07937 32 8.31958 32 12.8V19.2C32 23.6804 32 25.9206 31.1281 27.6319C30.3611 29.1372 29.1372 30.3611 27.6319 31.1281C25.9206 32 23.6804 32 19.2 32H12.8C8.31958 32 6.07937 32 4.36808 31.1281C2.86278 30.3611 1.63893 29.1372 0.871948 27.6319C0 25.9206 0 23.6804 0 19.2V12.8Z" fill="white"/>
<path d="M12.7998 0.0996094H19.2002C21.442 0.0996094 23.1173 0.100404 24.4463 0.208984C25.7741 0.317475 26.7477 0.533352 27.5869 0.960938C29.0732 1.7183 30.2817 2.92681 31.0391 4.41309C31.4666 5.25227 31.6825 6.22592 31.791 7.55371C31.8996 8.88267 31.9004 10.558 31.9004 12.7998V19.2002C31.9004 21.442 31.8996 23.1173 31.791 24.4463C31.6825 25.7741 31.4666 26.7477 31.0391 27.5869C30.2817 29.0732 29.0732 30.2817 27.5869 31.0391C26.7477 31.4666 25.7741 31.6825 24.4463 31.791C23.1173 31.8996 21.442 31.9004 19.2002 31.9004H12.7998C10.558 31.9004 8.88267 31.8996 7.55371 31.791C6.22592 31.6825 5.25227 31.4666 4.41309 31.0391C2.92681 30.2817 1.7183 29.0732 0.960938 27.5869C0.533352 26.7477 0.317475 25.7741 0.208984 24.4463C0.100404 23.1173 0.0996094 21.442 0.0996094 19.2002V12.7998C0.0996094 10.558 0.100404 8.88267 0.208984 7.55371C0.317475 6.22592 0.533352 5.25227 0.960938 4.41309C1.7183 2.92681 2.92681 1.7183 4.41309 0.960938C5.25227 0.533352 6.22592 0.317475 7.55371 0.208984C8.88267 0.100404 10.558 0.0996094 12.7998 0.0996094Z" stroke="#0A0D12" stroke-opacity="0.25" stroke-width="0.2"/>
<path d="M28.0012 10.0002C28.001 16.6274 22.6282 22.0004 16.0012 22.0012L16.0012 10.0002L28.0012 10.0002Z" fill="#3B82F6"/>
<path d="M4 22.001C4 15.3736 9.37286 10.0008 16 10L16 22.001L4 22.001Z" fill="#3B82F6"/>
<path d="M24.1611 11.9209C24.1608 16.4273 20.5065 20.0808 16 20.0811L16 11.9209L24.1611 11.9209Z" fill="white"/>
<path d="M7.83984 20.0799C7.84022 15.5737 11.4939 11.9203 16 11.9197L16 20.0799L7.83984 20.0799Z" fill="white"/>
<path d="M17.04 20.8011C14.5648 20.1746 13.0959 17.7713 13.7589 15.4335L18.241 16.5678L17.04 20.8011Z" fill="#3B82F6"/>
<path d="M14.96 11.2001C17.4352 11.8265 18.9041 14.2298 18.2411 16.5677L13.759 15.4334L14.96 11.2001Z" fill="#3B82F6"/>
</svg>
