<svg width="81" height="13" viewBox="0 0 81 13" fill="none" xmlns="http://www.w3.org/2000/svg">
<path d="M7.47159 3.5625C7.41856 3.06629 7.19508 2.67992 6.80114 2.40341C6.41099 2.12689 5.90341 1.98864 5.27841 1.98864C4.83902 1.98864 4.46212 2.05492 4.14773 2.1875C3.83333 2.32008 3.5928 2.5 3.42614 2.72727C3.25947 2.95455 3.17424 3.21402 3.17045 3.50568C3.17045 3.74811 3.22538 3.95833 3.33523 4.13636C3.44886 4.31439 3.60227 4.46591 3.79545 4.59091C3.98864 4.71212 4.20265 4.81439 4.4375 4.89773C4.67235 4.98106 4.90909 5.05114 5.14773 5.10795L6.23864 5.38068C6.67803 5.48295 7.10038 5.62121 7.50568 5.79545C7.91477 5.9697 8.2803 6.18939 8.60227 6.45455C8.92803 6.7197 9.18561 7.03977 9.375 7.41477C9.56439 7.78977 9.65909 8.22917 9.65909 8.73295C9.65909 9.41477 9.48485 10.0152 9.13636 10.5341C8.78788 11.0492 8.28409 11.4527 7.625 11.7443C6.9697 12.0322 6.17614 12.1761 5.24432 12.1761C4.33902 12.1761 3.55303 12.036 2.88636 11.7557C2.22348 11.4754 1.70455 11.0663 1.32955 10.5284C0.958333 9.99053 0.757576 9.33523 0.727273 8.5625H2.80114C2.83144 8.9678 2.95644 9.30492 3.17614 9.57386C3.39583 9.8428 3.68182 10.0436 4.03409 10.1761C4.39015 10.3087 4.78788 10.375 5.22727 10.375C5.68561 10.375 6.08712 10.3068 6.43182 10.1705C6.7803 10.0303 7.05303 9.83712 7.25 9.59091C7.44697 9.34091 7.54735 9.04924 7.55114 8.71591C7.54735 8.41288 7.45833 8.16288 7.28409 7.96591C7.10985 7.76515 6.86553 7.59848 6.55114 7.46591C6.24053 7.32955 5.87689 7.20833 5.46023 7.10227L4.13636 6.76136C3.17803 6.51515 2.42045 6.14205 1.86364 5.64205C1.31061 5.13826 1.03409 4.4697 1.03409 3.63636C1.03409 2.95076 1.2197 2.35038 1.59091 1.83523C1.96591 1.32008 2.47538 0.920454 3.11932 0.636363C3.76326 0.348484 4.49242 0.204545 5.30682 0.204545C6.13258 0.204545 6.85606 0.348484 7.47727 0.636363C8.10227 0.920454 8.5928 1.31629 8.94886 1.82386C9.30492 2.32765 9.48864 2.9072 9.5 3.5625H7.47159ZM13.5043 6.88636V12H11.4474V0.363636H13.4588V4.75568H13.5611C13.7656 4.26326 14.0819 3.875 14.5099 3.59091C14.9418 3.30303 15.491 3.15909 16.1577 3.15909C16.7637 3.15909 17.2921 3.28598 17.7429 3.53977C18.1937 3.79356 18.5421 4.16477 18.7884 4.65341C19.0384 5.14205 19.1634 5.73864 19.1634 6.44318V12H17.1065V6.76136C17.1065 6.17424 16.955 5.7178 16.652 5.39205C16.3527 5.0625 15.9323 4.89773 15.3906 4.89773C15.027 4.89773 14.7012 4.97727 14.4134 5.13636C14.1293 5.29167 13.9058 5.51705 13.7429 5.8125C13.5838 6.10795 13.5043 6.46591 13.5043 6.88636ZM25.0668 12.1705C24.2145 12.1705 23.4759 11.983 22.8509 11.608C22.2259 11.233 21.741 10.7083 21.3963 10.0341C21.0554 9.35985 20.8849 8.57197 20.8849 7.67045C20.8849 6.76894 21.0554 5.97917 21.3963 5.30114C21.741 4.62311 22.2259 4.09659 22.8509 3.72159C23.4759 3.34659 24.2145 3.15909 25.0668 3.15909C25.919 3.15909 26.6577 3.34659 27.2827 3.72159C27.9077 4.09659 28.3906 4.62311 28.7315 5.30114C29.0762 5.97917 29.2486 6.76894 29.2486 7.67045C29.2486 8.57197 29.0762 9.35985 28.7315 10.0341C28.3906 10.7083 27.9077 11.233 27.2827 11.608C26.6577 11.983 25.919 12.1705 25.0668 12.1705ZM25.0781 10.5227C25.5402 10.5227 25.9266 10.3958 26.2372 10.142C26.5478 9.88447 26.7789 9.53977 26.9304 9.10795C27.0857 8.67614 27.1634 8.19508 27.1634 7.66477C27.1634 7.13068 27.0857 6.64773 26.9304 6.21591C26.7789 5.7803 26.5478 5.43371 26.2372 5.17614C25.9266 4.91856 25.5402 4.78977 25.0781 4.78977C24.6046 4.78977 24.2107 4.91856 23.8963 5.17614C23.5857 5.43371 23.3527 5.7803 23.1974 6.21591C23.0459 6.64773 22.9702 7.13068 22.9702 7.66477C22.9702 8.19508 23.0459 8.67614 23.1974 9.10795C23.3527 9.53977 23.5857 9.88447 23.8963 10.142C24.2107 10.3958 24.6046 10.5227 25.0781 10.5227ZM32.5455 12L30.0795 3.27273H32.1761L33.7102 9.40909H33.7898L35.358 3.27273H37.4318L39 9.375H39.0852L40.5966 3.27273H42.6989L40.2273 12H38.0852L36.4489 6.10227H36.3295L34.6932 12H32.5455ZM54.6236 6.18182C54.6236 7.43561 54.3887 8.50947 53.919 9.40341C53.4531 10.2936 52.8168 10.9754 52.0099 11.4489C51.2069 11.9223 50.2959 12.1591 49.277 12.1591C48.258 12.1591 47.3452 11.9223 46.5384 11.4489C45.7353 10.9716 45.099 10.2879 44.6293 9.39773C44.1634 8.50379 43.9304 7.43182 43.9304 6.18182C43.9304 4.92803 44.1634 3.85606 44.6293 2.96591C45.099 2.07197 45.7353 1.38826 46.5384 0.914772C47.3452 0.441287 48.258 0.204545 49.277 0.204545C50.2959 0.204545 51.2069 0.441287 52.0099 0.914772C52.8168 1.38826 53.4531 2.07197 53.919 2.96591C54.3887 3.85606 54.6236 4.92803 54.6236 6.18182ZM52.5043 6.18182C52.5043 5.29924 52.366 4.55492 52.0895 3.94886C51.8168 3.33902 51.438 2.87879 50.9531 2.56818C50.4683 2.25379 49.9096 2.09659 49.277 2.09659C48.6444 2.09659 48.0857 2.25379 47.6009 2.56818C47.116 2.87879 46.7353 3.33902 46.4588 3.94886C46.1861 4.55492 46.0497 5.29924 46.0497 6.18182C46.0497 7.06439 46.1861 7.81061 46.4588 8.42045C46.7353 9.02652 47.116 9.48674 47.6009 9.80114C48.0857 10.1117 48.6444 10.267 49.277 10.267C49.9096 10.267 50.4683 10.1117 50.9531 9.80114C51.438 9.48674 51.8168 9.02652 52.0895 8.42045C52.366 7.81061 52.5043 7.06439 52.5043 6.18182ZM58.5824 6.88636V12H56.5256V3.27273H58.4915V4.75568H58.5938C58.7945 4.26705 59.1146 3.87879 59.554 3.59091C59.9972 3.30303 60.5445 3.15909 61.196 3.15909C61.7983 3.15909 62.3229 3.28788 62.7699 3.54545C63.2206 3.80303 63.5691 4.17614 63.8153 4.66477C64.0653 5.15341 64.1884 5.74621 64.1847 6.44318V12H62.1278V6.76136C62.1278 6.17803 61.9763 5.72159 61.6733 5.39205C61.3741 5.0625 60.9593 4.89773 60.429 4.89773C60.0691 4.89773 59.7491 4.97727 59.4688 5.13636C59.1922 5.29167 58.9744 5.51705 58.8153 5.8125C58.66 6.10795 58.5824 6.46591 58.5824 6.88636ZM67.8608 12H65.6108L69.7074 0.363636H72.3097L76.4119 12H74.1619L71.054 2.75H70.9631L67.8608 12ZM67.9347 7.4375H74.071V9.13068H67.9347V7.4375ZM80.0526 0.363636V12H77.9446V0.363636H80.0526Z" fill="url(#paint0_linear_1833_46880)"/>
<defs>
<linearGradient id="paint0_linear_1833_46880" x1="41" y1="-6" x2="41" y2="18" gradientUnits="userSpaceOnUse">
<stop stop-color="#3395FF"/>
<stop offset="1" stop-color="#0166FF"/>
</linearGradient>
</defs>
</svg>
