<svg width="1440" height="204" viewBox="0 0 1440 204" fill="none" xmlns="http://www.w3.org/2000/svg">
<path d="M119.89 61.543C118.925 52.5181 114.86 45.4911 107.696 40.462C100.6 35.4329 91.3683 32.9183 80.0011 32.9183C72.0096 32.9183 65.1548 34.1239 59.4368 36.5352C53.7188 38.9464 49.3441 42.2187 46.3129 46.3523C43.2816 50.4858 41.7315 55.2049 41.6626 60.5096C41.6626 64.9187 42.6616 68.7422 44.6594 71.9801C46.7262 75.218 49.5163 77.9737 53.0298 80.2472C56.5433 82.4517 60.4357 84.3118 64.707 85.8274C68.9783 87.343 73.2841 88.6175 77.6243 89.6509L97.4652 94.6111C105.457 96.4712 113.138 98.9858 120.51 102.155C127.95 105.324 134.598 109.32 140.454 114.142C146.379 118.964 151.063 124.786 154.508 131.606C157.952 138.426 159.675 146.418 159.675 155.581C159.675 167.981 156.506 178.901 150.168 188.339C143.83 197.708 134.667 205.045 122.68 210.35C110.761 215.586 96.3285 218.203 79.381 218.203C62.9158 218.203 48.6207 215.654 36.4957 210.556C24.4396 205.458 15.0014 198.018 8.18111 188.235C1.42969 178.453 -2.22159 166.534 -2.77273 152.48H34.9457C35.4968 159.852 37.7702 165.983 41.766 170.875C45.7617 175.766 50.9631 179.417 57.37 181.828C63.8459 184.24 71.0795 185.445 79.071 185.445C87.407 185.445 94.7095 184.205 100.979 181.725C107.317 179.176 112.277 175.663 115.859 171.185C119.442 166.638 121.267 161.333 121.336 155.271C121.267 149.759 119.648 145.212 116.479 141.63C113.31 137.979 108.867 134.947 103.149 132.536C97.4996 130.056 90.886 127.852 83.3079 125.923L59.2301 119.722C41.8004 115.244 28.022 108.458 17.8949 99.3647C7.83665 90.2021 2.80753 78.0426 2.80753 62.8864C2.80753 50.4169 6.18324 39.4975 12.9347 30.1282C19.755 20.7589 29.021 13.4908 40.7326 8.32385C52.4443 3.08806 65.706 0.470163 80.5178 0.470163C95.5362 0.470163 108.695 3.08806 119.993 8.32385C131.36 13.4908 140.282 20.69 146.757 29.9215C153.233 39.0842 156.575 49.6246 156.781 61.543H119.89ZM229.609 121.996V215H192.2V3.36363H228.782V83.244H230.642C234.362 74.288 240.115 67.2266 247.9 62.0597C255.753 56.8239 265.743 54.206 277.868 54.206C288.89 54.206 298.501 56.5138 306.699 61.1296C314.897 65.7454 321.235 72.4968 325.713 81.3839C330.26 90.2709 332.533 101.121 332.533 113.935V215H295.125V119.722C295.125 109.044 292.369 100.743 286.858 94.8178C281.416 88.8242 273.769 85.8274 263.917 85.8274C257.303 85.8274 251.379 87.2741 246.143 90.1676C240.976 92.9922 236.911 97.0913 233.949 102.465C231.055 107.838 229.609 114.349 229.609 121.996ZM439.902 218.1C424.401 218.1 410.967 214.69 399.6 207.87C388.233 201.049 379.415 191.508 373.145 179.245C366.945 166.982 363.845 152.653 363.845 136.256C363.845 119.86 366.945 105.496 373.145 93.1644C379.415 80.8327 388.233 71.2567 399.6 64.4364C410.967 57.6161 424.401 54.206 439.902 54.206C455.402 54.206 468.836 57.6161 480.204 64.4364C491.571 71.2567 500.354 80.8327 506.555 93.1644C512.824 105.496 515.959 119.86 515.959 136.256C515.959 152.653 512.824 166.982 506.555 179.245C500.354 191.508 491.571 201.049 480.204 207.87C468.836 214.69 455.402 218.1 439.902 218.1ZM440.108 188.132C448.513 188.132 455.54 185.824 461.189 181.208C466.839 176.524 471.041 170.255 473.797 162.401C476.621 154.547 478.033 145.798 478.033 136.153C478.033 126.439 476.621 117.656 473.797 109.802C471.041 101.879 466.839 95.5756 461.189 90.891C455.54 86.2063 448.513 83.864 440.108 83.864C431.497 83.864 424.332 86.2063 418.614 90.891C412.965 95.5756 408.728 101.879 405.903 109.802C403.148 117.656 401.77 126.439 401.77 136.153C401.77 145.798 403.148 154.547 405.903 162.401C408.728 170.255 412.965 176.524 418.614 181.208C424.332 185.824 431.497 188.132 440.108 188.132ZM575.92 215L531.072 56.2727H569.203L597.105 167.878H598.551L627.073 56.2727H664.791L693.312 167.258H694.863L722.35 56.2727H760.586L715.634 215H676.675L646.914 107.735H644.744L614.982 215H575.92ZM977.466 109.182C977.466 131.985 973.195 151.516 964.652 167.775C956.179 183.964 944.605 196.365 929.931 204.976C915.326 213.588 898.757 217.893 880.225 217.893C861.693 217.893 845.09 213.588 830.416 204.976C815.811 196.296 804.237 183.861 795.695 167.671C787.221 151.413 782.984 131.916 782.984 109.182C782.984 86.3785 787.221 66.8821 795.695 50.6925C804.237 34.4339 815.811 21.9989 830.416 13.3874C845.09 4.77591 861.693 0.470163 880.225 0.470163C898.757 0.470163 915.326 4.77591 929.931 13.3874C944.605 21.9989 956.179 34.4339 964.652 50.6925C973.195 66.8821 977.466 86.3785 977.466 109.182ZM938.921 109.182C938.921 93.13 936.407 79.5927 931.378 68.5699C926.417 57.4783 919.528 49.108 910.71 43.4588C901.892 37.7408 891.73 34.8817 880.225 34.8817C868.72 34.8817 858.559 37.7408 849.741 43.4588C840.922 49.108 833.999 57.4783 828.97 68.5699C824.009 79.5927 821.529 93.13 821.529 109.182C821.529 125.234 824.009 138.805 828.97 149.897C833.999 160.92 840.922 169.29 849.741 175.008C858.559 180.657 868.72 183.482 880.225 183.482C891.73 183.482 901.892 180.657 910.71 175.008C919.528 169.29 926.417 160.92 931.378 149.897C936.407 138.805 938.921 125.234 938.921 109.182ZM1049.47 121.996V215H1012.06V56.2727H1047.81V83.244H1049.67C1053.33 74.3569 1059.15 67.2955 1067.14 62.0597C1075.2 56.8239 1085.15 54.206 1097 54.206C1107.96 54.206 1117.5 56.5483 1125.63 61.2329C1133.83 65.9176 1140.16 72.7035 1144.64 81.5906C1149.19 90.4776 1151.43 101.259 1151.36 113.935V215H1113.95V119.722C1113.95 109.113 1111.19 100.811 1105.68 94.8178C1100.24 88.8242 1092.7 85.8274 1083.05 85.8274C1076.51 85.8274 1070.69 87.2741 1065.59 90.1676C1060.56 92.9922 1056.6 97.0913 1053.7 102.465C1050.88 107.838 1049.47 114.349 1049.47 121.996ZM1218.22 215H1177.3L1251.8 3.36363H1299.13L1373.74 215H1332.82L1276.29 46.7656H1274.64L1218.22 215ZM1219.56 132.02H1331.17V162.814H1219.56V132.02ZM1439.96 3.36363V215H1401.62V3.36363H1439.96Z" fill="url(#paint0_linear_1833_47502)"/>
<defs>
<linearGradient id="paint0_linear_1833_47502" x1="722.5" y1="3" x2="722.5" y2="215" gradientUnits="userSpaceOnUse">
<stop stop-color="#3395FF"/>
<stop offset="1" stop-color="#0166FF"/>
</linearGradient>
</defs>
</svg>
