<svg width="64" height="64" viewBox="0 0 64 64" fill="none" xmlns="http://www.w3.org/2000/svg">
<path d="M15.9998 34.667C8.63984 34.667 2.6665 40.6137 2.6665 48.0003C2.6665 55.387 8.63984 61.3337 15.9998 61.3337C23.3598 61.3337 29.3332 55.3603 29.3332 48.0003C29.3332 40.6403 23.3865 34.667 15.9998 34.667ZM10.5598 42.5603H15.9998C17.0132 42.5603 17.8132 43.387 17.8132 44.3737C17.8132 45.3603 16.9865 46.187 15.9998 46.187H10.5598C9.54648 46.187 8.7465 45.3603 8.7465 44.3737C8.7465 43.387 9.54648 42.5603 10.5598 42.5603ZM21.4399 53.4403H10.5332C9.51987 53.4403 8.71981 52.6137 8.71981 51.627C8.71981 50.6403 9.54654 49.8136 10.5332 49.8136H21.4399C22.4532 49.8136 23.2532 50.6403 23.2532 51.627C23.2532 52.6137 22.4532 53.4403 21.4399 53.4403Z" fill="#3D6FEA"/>
<path opacity="0.4" d="M45.3335 8H18.6668C10.6668 8 5.3335 12 5.3335 21.3333V29.7067C5.3335 31.6533 7.33353 32.88 9.1202 32.1066C12.0535 30.8266 15.3868 30.3467 18.8801 30.9067C25.8668 32.0533 31.5735 37.5733 32.9868 44.5067C33.3868 46.5333 33.4402 48.5067 33.1735 50.4C32.9602 51.9733 34.2401 53.36 35.8135 53.36H45.3335C53.3335 53.36 58.6668 49.36 58.6668 40.0267V21.36C58.6668 12 53.3335 8 45.3335 8Z" fill="#3D6FEA"/>
<path d="M32.0022 31.6529C29.7622 31.6529 27.4955 30.9596 25.7622 29.5463L17.4155 22.8796C16.5622 22.1863 16.4022 20.9329 17.0955 20.0796C17.7889 19.2263 19.0422 19.0663 19.8955 19.7596L28.2422 26.4263C30.2688 28.0529 33.7088 28.0529 35.7355 26.4263L44.0822 19.7596C44.9355 19.0663 46.2155 19.1996 46.8821 20.0796C47.5755 20.9329 47.4422 22.2129 46.5622 22.8796L38.2155 29.5463C36.5088 30.9596 34.2422 31.6529 32.0022 31.6529Z" fill="#3D6FEA"/>
</svg>
