<svg width="12" height="8" viewBox="0 0 12 8" fill="none" xmlns="http://www.w3.org/2000/svg">
<path d="M10.5837 0.75C10.9937 0.750022 11.3337 1.09001 11.3337 1.5V3.5C11.3337 3.90999 10.9937 4.24998 10.5837 4.25C10.1737 4.25 9.83371 3.91 9.83371 3.5V3.2998L6.90402 6.23047C6.74403 6.39043 6.53341 6.47019 6.30344 6.4502C6.08355 6.43014 5.88359 6.31002 5.75363 6.12012L4.66379 4.48047L2.11398 7.03027C1.96399 7.18026 1.7737 7.24999 1.58371 7.25C1.39372 7.25 1.20343 7.18026 1.05344 7.03027C0.763438 6.74027 0.763438 6.25973 1.05344 5.96973L4.25363 2.76953C4.4135 2.60978 4.62352 2.52996 4.85324 2.5498C5.07324 2.5698 5.27402 2.68988 5.40402 2.87988L6.49387 4.51953L8.7634 2.25H8.58371C8.17371 2.25 7.83371 1.91 7.83371 1.5C7.83371 1.09 8.17371 0.75 8.58371 0.75H10.5837Z" fill="#16A34A"/>
</svg>
